<svg width="184" height="73" viewBox="0 0 184 73" fill="none" xmlns="http://www.w3.org/2000/svg">
<g clip-path="url(#clip0_112_4790)">
<path fill-rule="evenodd" clip-rule="evenodd" d="M140.039 8.04614H162.623V14.9116C162.623 18.1798 165.426 20.8293 168.884 20.8293C172.342 20.8293 175.145 18.1798 175.145 14.9116V8.04614H181.941C183.078 8.04614 184 8.91767 184 9.99281V71.0533C184 72.1285 183.078 72.9999 181.941 72.9999H121.523C120.385 72.9999 119.463 72.1285 119.463 71.0533V9.99281C119.463 8.91767 120.385 8.04614 121.523 8.04614H127.516V14.9116C127.516 18.1798 130.319 20.8293 133.777 20.8293C137.235 20.8293 140.039 18.1798 140.039 14.9116V8.04614ZM164.133 14.9116V8.04614H173.634V14.9116C173.634 17.3914 171.507 19.4017 168.884 19.4017C166.26 19.4017 164.133 17.3914 164.133 14.9116ZM129.026 8.04614V14.9116C129.026 17.3914 131.153 19.4017 133.777 19.4017C136.401 19.4017 138.528 17.3914 138.528 14.9116V8.04614H129.026ZM179.62 23.4897H123.843V63.2666C123.843 65.9186 126.118 68.0684 128.924 68.0684H174.539C177.345 68.0684 179.62 65.9186 179.62 63.2666V23.4897Z" fill="white"/>
<path d="M133.777 0.713867H133.777C131.57 0.713867 129.781 2.40459 129.781 4.4902V14.9118C129.781 16.9974 131.57 18.6881 133.777 18.6881C135.984 18.6881 137.772 16.9974 137.772 14.9118V4.4902C137.772 2.40459 135.984 0.713867 133.777 0.713867Z" fill="white" stroke="white" stroke-width="2"/>
<path d="M168.884 0.713867H168.884C166.677 0.713867 164.888 2.40459 164.888 4.4902V14.9118C164.888 16.9974 166.677 18.6881 168.884 18.6881H168.884C171.091 18.6881 172.879 16.9974 172.879 14.9118V4.4902C172.879 2.40459 171.091 0.713867 168.884 0.713867Z" fill="white" stroke="white" stroke-width="2"/>
<path d="M16.5602 58.7894V54.7014L16.1483 53.8059V46.4865C16.1483 45.1887 15.7226 44.1764 14.8713 43.4497C14.0474 42.7229 12.7704 42.3595 11.0402 42.3595C9.85934 42.3595 8.69218 42.5412 7.53874 42.9046C6.41277 43.242 5.45158 43.7092 4.65516 44.3062L2.34829 40.0625C3.55665 39.2579 5.01218 38.6349 6.71486 38.1937C8.41755 37.7524 10.1477 37.5318 11.9053 37.5318C15.2832 37.5318 17.9059 38.2845 19.7734 39.7899C21.6408 41.2954 22.5746 43.6443 22.5746 46.8369V58.7894H16.5602ZM9.80441 59.1009C8.07427 59.1009 6.59128 58.8283 5.35546 58.2833C4.11964 57.7123 3.17218 56.9466 2.51307 55.9862C1.85397 55.0259 1.52441 53.9487 1.52441 52.7547C1.52441 51.5089 1.84023 50.4187 2.47188 49.4843C3.13098 48.5499 4.16083 47.8232 5.56143 47.3041C6.96203 46.759 8.78829 46.4865 11.0402 46.4865H16.931V50.0294H11.7405C10.2301 50.0294 9.1865 50.263 8.60979 50.7302C8.06053 51.1974 7.78591 51.7814 7.78591 52.4822C7.78591 53.2609 8.10173 53.8838 8.73337 54.351C9.39247 54.7923 10.285 55.0129 11.411 55.0129C12.482 55.0129 13.4432 54.7793 14.2946 54.3121C15.1459 53.8189 15.7638 53.1051 16.1483 52.1707L17.137 54.9739C16.6701 56.3236 15.8187 57.3489 14.5829 58.0497C13.3471 58.7505 11.7543 59.1009 9.80441 59.1009ZM34.4423 66.6539C32.3551 66.6539 30.3366 66.4074 28.3868 65.9142C26.4644 65.447 24.8578 64.7332 23.5671 63.7729L26.1211 59.4123C27.0548 60.1391 28.2357 60.7101 29.6638 61.1254C31.1193 61.5667 32.5474 61.7873 33.948 61.7873C36.2274 61.7873 37.8751 61.3071 38.8912 60.3467C39.9348 59.3864 40.4566 57.9588 40.4566 56.0641V52.9105L40.8686 47.6545L40.7862 42.3595V37.8433H46.8829V55.2854C46.8829 59.1787 45.8118 62.0468 43.6698 63.8897C41.5277 65.7325 38.4518 66.6539 34.4423 66.6539ZM33.4536 57.7771C31.3939 57.7771 29.5265 57.3619 27.8512 56.5313C26.2035 55.6747 24.8715 54.4938 23.8554 52.9883C22.8668 51.457 22.3724 49.679 22.3724 47.6545C22.3724 45.604 22.8668 43.826 23.8554 42.3206C24.8715 40.7892 26.2035 39.6083 27.8512 38.7777C29.5265 37.9471 31.3939 37.5318 33.4536 37.5318C35.3211 37.5318 36.9689 37.8952 38.3969 38.6219C39.825 39.3227 40.9372 40.4259 41.7336 41.9313C42.53 43.4107 42.9283 45.3185 42.9283 47.6545C42.9283 49.9645 42.53 51.8723 41.7336 53.3777C40.9372 54.8571 39.825 55.9603 38.3969 56.687C36.9689 57.4138 35.3211 57.7771 33.4536 57.7771ZM34.7306 52.7937C35.8566 52.7937 36.859 52.586 37.7378 52.1707C38.6166 51.7295 39.3032 51.1195 39.7975 50.3409C40.2918 49.5622 40.539 48.6667 40.539 47.6545C40.539 46.6163 40.2918 45.7208 39.7975 44.9681C39.3032 44.1894 38.6166 43.5924 37.7378 43.1771C36.859 42.7359 35.8566 42.5153 34.7306 42.5153C33.6047 42.5153 32.6023 42.7359 31.7235 43.1771C30.8447 43.5924 30.1444 44.1894 29.6226 44.9681C29.1283 45.7208 28.8811 46.6163 28.8811 47.6545C28.8811 48.6667 29.1283 49.5622 29.6226 50.3409C30.1444 51.1195 30.8447 51.7295 31.7235 52.1707C32.6023 52.586 33.6047 52.7937 34.7306 52.7937ZM59.3315 59.1009C56.8049 59.1009 54.5805 58.6337 52.6581 57.6993C50.7632 56.7649 49.2939 55.4931 48.2503 53.8838C47.2067 52.2486 46.6849 50.3928 46.6849 48.3163C46.6849 46.2139 47.193 44.3581 48.2091 42.7489C49.2527 41.1137 50.667 39.8419 52.4521 38.9334C54.2372 37.999 56.2557 37.5318 58.5076 37.5318C60.6772 37.5318 62.627 37.9731 64.3572 38.8555C66.1148 39.7121 67.5017 40.9579 68.5178 42.5931C69.5337 44.2024 70.0417 46.1361 70.0417 48.3942C70.0417 48.6278 70.028 48.9003 70.0006 49.2118C69.9731 49.4973 69.9456 49.7699 69.9182 50.0294H51.9166V46.4865H66.5405L64.0688 47.5377C64.0688 46.4475 63.8354 45.5002 63.3685 44.6955C62.9017 43.8909 62.2563 43.268 61.4324 42.8267C60.6085 42.3595 59.6473 42.1259 58.5488 42.1259C57.4503 42.1259 56.4754 42.3595 55.624 42.8267C54.8002 43.268 54.1548 43.9039 53.6879 44.7345C53.2211 45.5391 52.9876 46.4995 52.9876 47.6155V48.5499C52.9876 49.692 53.2485 50.7043 53.7703 51.5867C54.3196 52.4433 55.0748 53.1051 56.036 53.5723C57.0246 54.0136 58.1781 54.2342 59.4963 54.2342C60.6772 54.2342 61.707 54.0655 62.5858 53.7281C63.4921 53.3907 64.316 52.8845 65.0575 52.2097L68.4766 55.7137C67.4605 56.8038 66.1834 57.6474 64.6455 58.2443C63.1076 58.8154 61.3363 59.1009 59.3315 59.1009ZM83.2595 37.5318C85.0172 37.5318 86.5825 37.8692 87.9557 38.5441C89.3563 39.193 90.4548 40.2052 91.2512 41.5809C92.0476 42.9306 92.4458 44.6696 92.4458 46.7979V58.7894H86.0195V47.7323C86.0195 46.0452 85.6213 44.7994 84.8249 43.9947C84.056 43.1901 82.9575 42.7878 81.5294 42.7878C80.5133 42.7878 79.5933 42.9955 78.7694 43.4107C77.973 43.8001 77.3413 44.41 76.8745 45.2406C76.4351 46.0712 76.2154 47.1354 76.2154 48.4331V58.7894H69.7891V37.8433H75.927V43.6443L74.7736 41.8923C75.57 40.4907 76.7097 39.4136 78.1927 38.6609C79.6757 37.9082 81.3646 37.5318 83.2595 37.5318ZM103.416 59.1009C101.329 59.1009 99.4481 58.6596 97.7729 57.7771C96.0977 56.8687 94.7657 55.6099 93.7771 54.0006C92.8159 52.3914 92.3353 50.4966 92.3353 48.3163C92.3353 46.1101 92.8159 44.2024 93.7771 42.5931C94.7657 40.9839 96.0977 39.738 97.7729 38.8555C99.4481 37.9731 101.329 37.5318 103.416 37.5318C105.284 37.5318 106.918 37.9211 108.319 38.6998C109.719 39.4785 110.804 40.6595 111.573 42.2427C112.342 43.826 112.726 45.8506 112.726 48.3163C112.726 50.7562 112.356 52.7807 111.614 54.3899C110.873 55.9732 109.802 57.1542 108.401 57.9329C107.028 58.7115 105.366 59.1009 103.416 59.1009ZM104.529 54.1174C105.572 54.1174 106.52 53.8838 107.371 53.4166C108.222 52.9494 108.895 52.2875 109.39 51.431C109.911 50.5485 110.172 49.5103 110.172 48.3163C110.172 47.0964 109.911 46.0582 109.39 45.2017C108.895 44.3451 108.222 43.6833 107.371 43.2161C106.52 42.7489 105.572 42.5153 104.529 42.5153C103.458 42.5153 102.496 42.7489 101.645 43.2161C100.794 43.6833 100.107 44.3451 99.5854 45.2017C99.0911 46.0582 98.8439 47.0964 98.8439 48.3163C98.8439 49.5103 99.0911 50.5485 99.5854 51.431C100.107 52.2875 100.794 52.9494 101.645 53.4166C102.496 53.8838 103.458 54.1174 104.529 54.1174ZM110.337 58.7894V54.5067L110.461 48.2774L110.049 42.087V29.9009H116.475V58.7894H110.337Z" fill="white"/>
<path d="M52.3574 69.8076C51.7257 69.8076 51.1536 69.6693 50.641 69.3923C50.1375 69.1152 49.7347 68.7174 49.4326 68.1983C49.1396 67.6792 48.9932 67.0692 48.9932 66.3684C48.9932 65.6501 49.1396 65.0363 49.4326 64.5256C49.7347 64.0151 50.1375 63.6215 50.641 63.3446C51.1536 63.0677 51.7257 62.9293 52.3574 62.9293C53.0348 62.9293 53.639 63.0764 54.1699 63.3706C54.71 63.6561 55.1311 64.0584 55.4332 64.5775C55.7444 65.0882 55.9001 65.6852 55.9001 66.3684C55.9001 67.0433 55.7444 67.6403 55.4332 68.1594C55.1311 68.6785 54.71 69.0853 54.1699 69.3793C53.639 69.6648 53.0348 69.8076 52.3574 69.8076ZM48.7598 69.7556V60.1261H49.4463V65.1745L49.309 66.3555L49.4189 67.5364V69.7556H48.7598ZM52.3162 69.2236C52.8654 69.2236 53.3598 69.1068 53.7992 68.8732C54.2386 68.6311 54.5819 68.2937 54.829 67.8609C55.0853 67.4281 55.2135 66.931 55.2135 66.3684C55.2135 65.7974 55.0853 65.2997 54.829 64.876C54.5819 64.4434 54.2386 64.1103 53.7992 63.8767C53.3598 63.6345 52.8654 63.5133 52.3162 63.5133C51.7669 63.5133 51.2726 63.6345 50.8332 63.8767C50.4029 64.1103 50.0596 64.4434 49.8033 64.876C49.5562 65.2997 49.4326 65.7974 49.4326 66.3684C49.4326 66.931 49.5562 67.4281 49.8033 67.8609C50.0596 68.2937 50.4029 68.6311 50.8332 68.8732C51.2726 69.1068 51.7669 69.2236 52.3162 69.2236ZM56.1494 72.3252C55.8198 72.3252 55.5086 72.2733 55.2156 72.1695C54.9319 72.0657 54.6893 71.9145 54.4879 71.7153L54.8311 71.2221C55.0143 71.4038 55.2111 71.5381 55.4216 71.6244C55.6413 71.7107 55.8885 71.7542 56.1631 71.7542C56.4926 71.7542 56.781 71.6679 57.0282 71.4947C57.2845 71.3214 57.5225 71.006 57.7422 70.5473L58.2365 69.5091L58.3326 69.3923L61.3673 62.9812H62.0676L58.3876 70.6771C58.1953 71.0923 57.9848 71.4168 57.7559 71.6504C57.5362 71.8924 57.2937 72.0657 57.0282 72.1695C56.7627 72.2733 56.4698 72.3252 56.1494 72.3252ZM58.2228 69.9244L54.8998 62.9812H55.6276L58.6485 69.3533L58.2228 69.9244ZM66.9856 69.8076C66.3722 69.8076 65.8413 69.7037 65.3927 69.4961C64.9441 69.28 64.5963 68.9595 64.3492 68.5357C64.1111 68.1029 63.9921 67.5708 63.9921 66.9395V62.9812H64.6787V66.8876C64.6787 67.6487 64.8847 68.2288 65.2966 68.6266C65.7086 69.0243 66.2898 69.2236 67.0405 69.2236C67.5806 69.2236 68.0474 69.1152 68.4411 68.8991C68.835 68.683 69.1371 68.38 69.3472 67.9907C69.5579 67.5929 69.663 67.1257 69.663 66.5891V62.9812H70.3496V69.7556H69.6905V67.8739L69.7866 68.0945C69.5765 68.622 69.2236 69.0419 68.7293 69.3533C68.2443 69.6564 67.663 69.8076 66.9856 69.8076ZM73.562 69.8076C72.9667 69.8076 72.4086 69.7251 71.8868 69.561C71.3739 69.3968 70.9757 69.1892 70.6922 68.938L71.008 68.4189C71.2826 68.6441 71.6485 68.8388 72.1065 69.0029C72.5644 69.1587 73.0587 69.2365 73.5895 69.2365C74.3399 69.2365 74.8802 69.1197 75.2098 68.8861C75.5393 68.6525 75.7041 68.3456 75.7041 67.9647C75.7041 67.6876 75.6169 67.4716 75.4432 67.3158C75.2784 67.1517 75.0539 67.0258 74.7704 66.9395C74.4868 66.8532 74.1751 66.7837 73.8366 66.7318C73.4981 66.6715 73.159 66.6066 72.8205 66.5372C72.482 66.4677 72.1703 66.3684 71.8868 66.2387C71.6032 66.1089 71.3739 65.9317 71.2002 65.7066C71.0354 65.473 70.953 65.1661 70.953 64.7852C70.953 64.4391 71.054 64.1276 71.2551 63.8508C71.4563 63.5739 71.7584 63.3532 72.1614 63.1889C72.5644 63.0158 73.0677 62.9293 73.6719 62.9293C74.1202 62.9293 74.5692 62.9899 75.0175 63.111C75.4755 63.2322 75.8462 63.3922 76.1298 63.5912L75.8139 64.1103C75.5119 63.894 75.1734 63.7383 74.7978 63.6431C74.4223 63.5479 74.0426 63.5004 73.6581 63.5004C72.9626 63.5004 72.4498 63.6215 72.1202 63.8637C71.7996 64.106 71.6396 64.4088 71.6396 64.7722C71.6396 65.0577 71.722 65.2867 71.8868 65.46C72.0605 65.6242 72.2898 65.7539 72.5733 65.8493C72.8569 65.9356 73.1686 66.0096 73.5071 66.07C73.8456 66.1219 74.1847 66.1822 74.5232 66.2516C74.8617 66.3211 75.1734 66.4204 75.4569 66.5501C75.7405 66.6715 75.965 66.8441 76.1298 67.0692C76.3035 67.2853 76.3907 67.5799 76.3907 67.9517C76.3907 68.3235 76.2808 68.648 76.0611 68.9251C75.8503 69.2021 75.5345 69.4182 75.1136 69.5739C74.6928 69.7297 74.1751 69.8076 73.562 69.8076ZM76.1373 71.6115L76.6728 69.4182L76.7415 69.7946C76.5678 69.7946 76.4209 69.7427 76.3021 69.6388C76.1922 69.535 76.1373 69.4052 76.1373 69.2495C76.1373 69.0938 76.1922 68.964 76.3021 68.8602C76.4209 68.7563 76.5582 68.7044 76.714 68.7044C76.8877 68.7044 77.025 68.7609 77.126 68.8732C77.2358 68.977 77.2907 69.1022 77.2907 69.2495C77.2907 69.3099 77.2859 69.3709 77.277 69.4312C77.2681 69.4915 77.2544 69.5525 77.2358 69.6129C77.2173 69.6732 77.1946 69.7511 77.1672 69.8465L76.6316 71.6115H76.1373ZM80.1887 69.7556V61.943C80.1887 61.3806 80.3576 60.9308 80.6968 60.5933C81.0442 60.2473 81.5385 60.0742 82.1798 60.0742C82.4448 60.0742 82.7057 60.1132 82.9625 60.191C83.2186 60.2603 83.4293 60.3684 83.5941 60.5155L83.3195 61.0086C83.1822 60.8788 83.0174 60.7836 82.8252 60.7231C82.6329 60.6626 82.427 60.6323 82.2073 60.6323C81.7679 60.6323 81.4335 60.7491 81.2049 60.9827C80.9756 61.2076 80.8616 61.5451 80.8616 61.9949V63.137L80.8753 63.4484V69.7556H80.1887ZM78.8705 63.5393V62.9812H83.1547V63.5393H78.8705ZM85.7266 69.8076C85.04 69.8076 84.4269 69.6603 83.8866 69.3663C83.3559 69.0724 82.9302 68.6655 82.6096 68.1464C82.2986 67.6273 82.1427 67.0348 82.1427 66.3684C82.1427 65.6936 82.2986 65.1012 82.6096 64.5905C82.9302 64.0714 83.3559 63.6647 83.8866 63.3706C84.4269 63.0764 85.04 62.9293 85.7266 62.9293C86.4132 62.9293 87.027 63.0764 87.5666 63.3706C88.1069 63.6647 88.5326 64.0714 88.8436 64.5905C89.1553 65.1012 89.3105 65.6936 89.3105 66.3684C89.3105 67.0348 89.1553 67.6273 88.8436 68.1464C88.5326 68.6655 88.1069 69.0724 87.5666 69.3663C87.027 69.6603 86.4132 69.8076 85.7266 69.8076ZM85.7266 69.2236C86.2759 69.2236 86.7702 69.1068 87.2096 68.8732C87.649 68.6311 87.9923 68.2937 88.2394 67.8609C88.4866 67.4281 88.6102 66.931 88.6102 66.3684C88.6102 65.7974 88.4866 65.2997 88.2394 64.876C87.9923 64.4434 87.649 64.1103 87.2096 63.8767C86.7702 63.6345 86.2759 63.5133 85.7266 63.5133C85.1773 63.5133 84.683 63.6345 84.2436 63.8767C83.8138 64.1103 83.4705 64.4434 83.2138 64.876C82.9666 65.2997 82.843 65.7974 82.843 66.3684C82.843 66.931 82.9666 67.4281 83.2138 67.8609C83.4705 68.2937 83.8138 68.6311 84.2436 68.8732C84.683 69.1068 85.1773 69.2236 85.7266 69.2236ZM89.9304 69.7556V62.9812H90.5896V64.8371L90.5209 64.6294C90.7221 64.0844 91.0605 63.6647 91.537 63.3706C92.0128 63.0764 92.6081 62.9293 93.3221 62.9293V63.5652C93.2946 63.5652 93.2672 63.5652 93.2397 63.5652C93.2122 63.5566 93.1848 63.5523 93.1573 63.5523C92.3609 63.5523 91.7382 63.7902 91.2899 64.266C90.8408 64.7332 90.617 65.3867 90.617 66.2257V69.7556H89.9304ZM95.675 72.3252C95.3454 72.3252 95.0344 72.2733 94.7412 72.1695C94.4577 72.0657 94.2153 71.9145 94.0135 71.7153L94.3567 71.2221C94.5401 71.4038 94.7371 71.5381 94.9472 71.6244C95.1669 71.7107 95.4141 71.7542 95.6887 71.7542C96.0182 71.7542 96.3066 71.6679 96.5538 71.4947C96.8105 71.3214 97.0481 71.006 97.2678 70.5473L97.7621 69.5091L97.8582 69.3923L100.893 62.9812H101.593L97.9132 70.6771C97.7209 71.0923 97.5108 71.4168 97.2815 71.6504C97.0618 71.8924 96.8195 72.0657 96.5538 72.1695C96.2887 72.2733 95.9956 72.3252 95.675 72.3252ZM97.7484 69.9244L94.4254 62.9812H95.1532L98.1741 69.3533L97.7484 69.9244ZM104.184 69.8076C103.498 69.8076 102.885 69.6603 102.344 69.3663C101.814 69.0724 101.388 68.6655 101.067 68.1464C100.756 67.6273 100.6 67.0348 100.6 66.3684C100.6 65.6936 100.756 65.1012 101.067 64.5905C101.388 64.0714 101.814 63.6647 102.344 63.3706C102.885 63.0764 103.498 62.9293 104.184 62.9293C104.871 62.9293 105.484 63.0764 106.024 63.3706C106.565 63.6647 106.99 64.0714 107.301 64.5905C107.612 65.1012 107.768 65.6936 107.768 66.3684C107.768 67.0348 107.612 67.6273 107.301 68.1464C106.99 68.6655 106.565 69.0724 106.024 69.3663C105.484 69.6603 104.871 69.8076 104.184 69.8076ZM104.184 69.2236C104.734 69.2236 105.228 69.1068 105.667 68.8732C106.107 68.6311 106.45 68.2937 106.697 67.8609C106.944 67.4281 107.068 66.931 107.068 66.3684C107.068 65.7974 106.944 65.2997 106.697 64.876C106.45 64.4434 106.107 64.1103 105.667 63.8767C105.228 63.6345 104.734 63.5133 104.184 63.5133C103.635 63.5133 103.141 63.6345 102.701 63.8767C102.271 64.1103 101.928 64.4434 101.671 64.876C101.424 65.2997 101.301 65.7974 101.301 66.3684C101.301 66.931 101.424 67.4281 101.671 67.8609C101.928 68.2937 102.271 68.6311 102.701 68.8732C103.141 69.1068 103.635 69.2236 104.184 69.2236ZM111.298 69.8076C110.685 69.8076 110.155 69.7037 109.706 69.4961C109.257 69.28 108.909 68.9595 108.662 68.5357C108.425 68.1029 108.305 67.5708 108.305 66.9395V62.9812H108.992V66.8876C108.992 67.6487 109.198 68.2288 109.61 68.6266C110.021 69.0243 110.603 69.2236 111.353 69.2236C111.894 69.2236 112.361 69.1152 112.754 68.8991C113.148 68.683 113.45 68.38 113.66 67.9907C113.871 67.5929 113.976 67.1257 113.976 66.5891V62.9812H114.663V69.7556H114.004V67.8739L114.1 68.0945C113.89 68.622 113.537 69.0419 113.042 69.3533C112.558 69.6564 111.976 69.8076 111.298 69.8076ZM115.98 69.8076C115.824 69.8076 115.687 69.7556 115.568 69.6518C115.458 69.5396 115.403 69.4052 115.403 69.2495C115.403 69.0938 115.458 68.964 115.568 68.8602C115.687 68.7563 115.824 68.7044 115.98 68.7044C116.136 68.7044 116.269 68.7563 116.378 68.8602C116.497 68.964 116.557 69.0938 116.557 69.2495C116.557 69.4052 116.497 69.5396 116.378 69.6518C116.269 69.7556 116.136 69.8076 115.98 69.8076Z" fill="white"/>
<path d="M136.956 43.7999H150.798V48.8612H136.956V43.7999ZM137.451 58.7892H130.777V31.5359H152.569V36.5972H137.451V58.7892ZM158.899 58.7892V47.6543L160.423 51.4698L147.736 31.5359H154.821L164.543 46.8367H160.465L170.227 31.5359H176.777L164.09 51.4698L165.573 47.6543V58.7892H158.899Z" fill="white"/>
</g>
<defs>
<clipPath id="clip0_112_4790">
<rect width="184" height="73" fill="white"/>
</clipPath>
</defs>
</svg>
