<svg width="402" height="280" viewBox="0 0 402 280" fill="none" xmlns="http://www.w3.org/2000/svg">
<rect width="401" height="274" transform="translate(0.5 3)" fill="white"/>
<g clip-path="url(#clip0_111_6026)">
<path d="M190.82 279.5C264.106 279.5 323.517 276.483 323.517 272.761C323.517 269.039 264.106 266.022 190.82 266.022C117.533 266.022 58.123 269.039 58.123 272.761C58.123 276.483 117.533 279.5 190.82 279.5Z" fill="#F2F2F2"/>
<path d="M268.347 65.2513H266.839V24.2376C266.839 17.942 264.321 11.9043 259.839 7.4526C255.356 3.00093 249.277 0.500007 242.938 0.5H155.446C149.107 0.499988 143.028 3.00089 138.545 7.45254C134.063 11.9042 131.545 17.9419 131.545 24.2375V249.242C131.545 255.537 134.063 261.575 138.545 266.027C143.028 270.478 149.107 272.979 155.446 272.979H242.938C249.277 272.979 255.356 270.478 259.839 266.027C264.321 261.575 266.839 255.537 266.839 249.242V94.4455H268.347L268.347 65.2513Z" fill="#3F3D56"/>
<path d="M261.752 24.4033V249.076C261.752 253.778 259.872 258.287 256.524 261.612C253.176 264.936 248.636 266.804 243.902 266.804H155.991C151.257 266.804 146.716 264.936 143.369 261.612C140.021 258.287 138.141 253.778 138.141 249.076V24.4033C138.141 19.7016 140.021 15.1925 143.369 11.8679C146.716 8.54334 151.257 6.67557 155.991 6.67548H166.655C166.131 7.95441 165.932 9.34165 166.074 10.7152C166.217 12.0887 166.697 13.4064 167.472 14.5523C168.248 15.6983 169.295 16.6374 170.522 17.2871C171.749 17.9368 173.118 18.2771 174.508 18.2781H224.631C226.021 18.2771 227.39 17.9368 228.617 17.2871C229.844 16.6374 230.891 15.6983 231.666 14.5523C232.442 13.4063 232.922 12.0887 233.065 10.7151C233.207 9.34164 233.008 7.95441 232.484 6.67548H243.902C248.636 6.67556 253.176 8.54334 256.524 11.8679C259.871 15.1925 261.752 19.7016 261.752 24.4033Z" fill="white"/>
<path d="M233.431 121.281C232.847 121.585 232.252 121.872 231.648 122.142C231.097 122.389 230.538 122.622 229.97 122.839C229.763 122.917 229.552 122.996 229.341 123.075C227.672 123.676 225.957 124.145 224.214 124.479C223.351 124.647 222.476 124.779 221.59 124.876C220.859 124.958 220.12 125.017 219.374 125.051C218.842 125.078 218.31 125.089 217.775 125.089C215.655 125.09 213.54 124.893 211.457 124.501C210.914 124.404 210.383 124.288 209.851 124.16C207.28 123.548 204.791 122.636 202.436 121.442C202.225 121.337 202.014 121.225 201.802 121.117C201.489 120.952 201.184 120.78 200.879 120.6C201.026 120.398 201.184 120.199 201.346 120.005C203.11 117.833 205.315 116.056 207.817 114.788C210.319 113.52 213.062 112.789 215.867 112.644C218.673 112.5 221.477 112.944 224.098 113.947C226.719 114.951 229.098 116.492 231.079 118.47C231.766 119.155 232.404 119.888 232.986 120.664C233.141 120.866 233.288 121.072 233.431 121.281Z" fill="#1B66A4"/>
<path d="M218.528 104.835C227.67 104.835 235.081 97.4746 235.081 88.3952C235.081 79.3158 227.67 71.9554 218.528 71.9554C209.386 71.9554 201.975 79.3158 201.975 88.3952C201.975 97.4746 209.386 104.835 218.528 104.835Z" fill="#2F2E41"/>
<path d="M222.93 104.858C228.9 101.617 231.094 94.1825 227.831 88.253C224.567 82.3235 217.081 80.1443 211.111 83.3857C205.141 86.627 202.947 94.0614 206.21 99.9909C209.474 105.92 216.96 108.1 222.93 104.858Z" fill="#A0616A"/>
<path d="M229.966 86.4257C227.151 88.3528 223.809 89.3784 220.39 89.3648C221.61 90.2047 222.998 90.7721 224.46 91.0277C219.914 91.9962 215.216 92.0225 210.659 91.1048C209.646 90.9435 208.669 90.6101 207.77 90.1193C207.322 89.8708 206.931 89.5315 206.624 89.1234C206.317 88.7153 206.1 88.2476 205.986 87.7506C205.684 86.0326 207.031 84.4718 208.432 83.4199C210.577 81.834 213.05 80.7413 215.672 80.2209C218.294 79.7005 220.999 79.7655 223.593 80.4111C225.287 80.8459 226.983 81.5804 228.083 82.9312C229.183 84.2819 229.509 86.3643 228.461 87.7553L229.966 86.4257Z" fill="#2F2E41"/>
<path d="M217.776 57.6971C210.377 57.696 203.18 60.0976 197.282 64.536C191.385 68.9743 187.111 75.2059 185.111 82.281C183.11 89.3561 183.494 96.8866 186.204 103.725C188.913 110.563 193.8 116.334 200.118 120.158L200.337 120.285C200.518 120.394 200.699 120.499 200.88 120.6C201.185 120.78 201.49 120.952 201.803 121.117C202.014 121.225 202.225 121.337 202.437 121.442C204.791 122.636 207.281 123.548 209.852 124.16C210.383 124.288 210.915 124.404 211.458 124.501C213.541 124.893 215.656 125.09 217.776 125.089C218.311 125.089 218.843 125.078 219.374 125.051C220.121 125.018 220.86 124.959 221.591 124.875C222.477 124.778 223.351 124.646 224.215 124.479C225.958 124.145 227.672 123.676 229.342 123.075C229.553 122.996 229.764 122.917 229.971 122.839C230.54 122.622 231.099 122.389 231.649 122.142C232.252 121.873 232.846 121.586 233.432 121.281C239.3 118.229 244.151 113.551 247.395 107.814C247.41 107.784 247.429 107.754 247.444 107.724C249.175 104.64 250.403 101.302 251.082 97.8364C252.036 92.957 251.891 87.9286 250.659 83.1111C249.427 78.2937 247.137 73.8064 243.954 69.9706C240.772 66.1348 236.774 63.0454 232.249 60.9235C227.723 58.8017 222.781 57.6999 217.776 57.6971ZM246.826 107.286C246.796 107.339 246.769 107.391 246.739 107.44C243.56 113.092 238.777 117.69 232.987 120.663C232.41 120.963 231.823 121.244 231.226 121.506C230.733 121.727 230.228 121.936 229.719 122.131C229.504 122.214 229.285 122.296 229.066 122.371C227.624 122.894 226.147 123.314 224.644 123.629C223.53 123.864 222.404 124.041 221.27 124.157C220.573 124.232 219.864 124.284 219.152 124.31C218.696 124.329 218.236 124.34 217.776 124.34C215.724 124.343 213.677 124.153 211.661 123.775C210.435 123.55 209.223 123.255 208.031 122.891C206.215 122.334 204.451 121.624 202.757 120.768C202.561 120.667 202.365 120.566 202.173 120.461C201.897 120.315 201.619 120.166 201.347 120.005C201.143 119.892 200.94 119.772 200.74 119.653C200.623 119.585 200.506 119.514 200.389 119.443C194.85 116.064 190.43 111.144 187.68 105.294C184.93 99.4434 183.97 92.9198 184.919 86.5323C185.868 80.1448 188.684 74.1747 193.019 69.3624C197.353 64.5502 203.015 61.1076 209.301 59.4619C215.587 57.8162 222.222 58.0396 228.382 60.1046C234.541 62.1696 239.955 65.9852 243.951 71.0781C247.947 76.171 250.35 82.317 250.861 88.7536C251.372 95.1903 249.969 101.634 246.826 107.286Z" fill="#3F3D56"/>
<path d="M210.145 72.1823C209.967 70.3223 207.672 69.1772 205.878 69.7391C204.084 70.3009 202.906 72.0951 202.55 73.9297C202.379 74.7024 202.362 75.501 202.503 76.2798C202.643 77.0587 202.936 77.8024 203.366 78.4683C204.273 79.7646 205.94 80.5736 207.494 80.2445C209.269 79.8689 210.498 78.148 210.85 76.3803C211.201 74.6126 210.852 72.7901 210.503 71.0218L210.145 72.1823Z" fill="#2F2E41"/>
<path d="M235.397 74.8395C235.219 72.9795 232.924 71.8344 231.13 72.3962C229.336 72.9581 228.158 74.7523 227.802 76.5869C227.63 77.3595 227.614 78.1582 227.754 78.937C227.895 79.7158 228.188 80.4595 228.618 81.1255C229.525 82.4218 231.192 83.2307 232.746 82.9017C234.52 82.526 235.75 80.8052 236.102 79.0375C236.453 77.2698 236.104 75.4473 235.755 73.679L235.397 74.8395Z" fill="#2F2E41"/>
<path d="M159.131 104.86C158.897 104.859 158.664 104.81 158.45 104.716C158.235 104.622 158.043 104.484 157.885 104.311L139.178 84.0438C138.966 83.8143 138.708 83.6311 138.421 83.5056C138.134 83.3801 137.823 83.3151 137.51 83.3148H38.6582C37.1581 83.3131 35.7199 82.7205 34.6591 81.667C33.5984 80.6135 33.0017 79.1852 33 77.6953V42.2912C33.0017 40.8014 33.5984 39.373 34.6591 38.3195C35.7199 37.266 37.1581 36.6734 38.6582 36.6718H166.728C168.228 36.6734 169.666 37.266 170.727 38.3195C171.787 39.373 172.384 40.8014 172.386 42.2912V77.6953C172.384 79.1852 171.787 80.6135 170.727 81.667C169.666 82.7205 168.228 83.3131 166.728 83.3148H163.097C162.497 83.3155 161.921 83.5526 161.497 83.974C161.073 84.3955 160.834 84.9669 160.833 85.563V103.172C160.835 103.512 160.732 103.844 160.539 104.125C160.345 104.406 160.071 104.621 159.751 104.743C159.554 104.82 159.343 104.859 159.131 104.86Z" fill="white"/>
<path d="M159.131 104.86C158.897 104.859 158.664 104.81 158.45 104.716C158.235 104.622 158.043 104.484 157.885 104.311L139.178 84.0438C138.966 83.8143 138.708 83.6311 138.421 83.5056C138.134 83.3801 137.823 83.3151 137.51 83.3148H38.6582C37.1581 83.3131 35.7199 82.7205 34.6591 81.667C33.5984 80.6135 33.0017 79.1852 33 77.6953V42.2912C33.0017 40.8014 33.5984 39.373 34.6591 38.3195C35.7199 37.266 37.1581 36.6734 38.6582 36.6718H166.728C168.228 36.6734 169.666 37.266 170.727 38.3195C171.787 39.373 172.384 40.8014 172.386 42.2912V77.6953C172.384 79.1852 171.787 80.6135 170.727 81.667C169.666 82.7205 168.228 83.3131 166.728 83.3148H163.097C162.497 83.3155 161.921 83.5526 161.497 83.974C161.073 84.3955 160.834 84.9669 160.833 85.563V103.172C160.835 103.512 160.732 103.844 160.539 104.125C160.345 104.406 160.071 104.621 159.751 104.743C159.554 104.82 159.343 104.859 159.131 104.86ZM38.6582 37.4206C37.358 37.422 36.1114 37.9356 35.192 38.8487C34.2726 39.7619 33.7554 40.9999 33.754 42.2912V77.6953C33.7554 78.9866 34.2726 80.2247 35.192 81.1378C36.1114 82.0509 37.358 82.5645 38.6582 82.566H137.51C137.928 82.5664 138.342 82.653 138.724 82.8203C139.107 82.9876 139.451 83.2319 139.734 83.5378L158.44 103.805C158.569 103.944 158.737 104.042 158.922 104.085C159.107 104.127 159.301 104.114 159.478 104.045C159.655 103.977 159.807 103.857 159.914 103.701C160.022 103.545 160.079 103.361 160.079 103.172V85.563C160.08 84.7684 160.398 84.0066 160.964 83.4448C161.53 82.8829 162.297 82.5669 163.097 82.566H166.728C168.028 82.5645 169.274 82.0509 170.194 81.1378C171.113 80.2247 171.63 78.9866 171.632 77.6953V42.2912C171.63 40.9999 171.113 39.7619 170.194 38.8487C169.274 37.9356 168.028 37.422 166.728 37.4206H38.6582Z" fill="#3F3D56"/>
<path d="M46.8789 52.2896C49.6133 52.2896 51.83 50.088 51.83 47.3723C51.83 44.6566 49.6133 42.4551 46.8789 42.4551C44.1444 42.4551 41.9277 44.6566 41.9277 47.3723C41.9277 50.088 44.1444 52.2896 46.8789 52.2896Z" fill="#1B66A4"/>
<path d="M160.952 74.5811H44.4348C44.0877 74.5815 43.744 74.5139 43.4233 74.3823C43.1026 74.2507 42.8111 74.0576 42.5656 73.814C42.32 73.5705 42.1252 73.2812 41.9923 72.9629C41.8594 72.6445 41.791 72.3032 41.791 71.9585C41.791 71.6139 41.8594 71.2726 41.9923 70.9542C42.1252 70.6358 42.32 70.3466 42.5656 70.103C42.8111 69.8594 43.1026 69.6663 43.4233 69.5347C43.744 69.4031 44.0877 69.3356 44.4348 69.336H160.952C161.651 69.3368 162.322 69.6135 162.817 70.1052C163.311 70.597 163.589 71.2635 163.589 71.9585C163.589 72.6535 163.311 73.3201 162.817 73.8118C162.322 74.3036 161.651 74.5802 160.952 74.5811Z" fill="#E6E6E6"/>
<path d="M122.993 63.4353H44.4348C44.0877 63.4357 43.744 63.3682 43.4233 63.2366C43.1026 63.105 42.8111 62.9119 42.5656 62.6683C42.32 62.4247 42.1252 62.1355 41.9923 61.8171C41.8594 61.4987 41.791 61.1574 41.791 60.8128C41.791 60.4681 41.8594 60.1268 41.9923 59.8085C42.1252 59.4901 42.32 59.2008 42.5656 58.9573C42.8111 58.7137 43.1026 58.5206 43.4233 58.389C43.744 58.2574 44.0877 58.1898 44.4348 58.1902H122.993C123.693 58.1902 124.365 58.4666 124.86 58.9584C125.355 59.4502 125.633 60.1172 125.633 60.8128C125.633 61.5083 125.355 62.1754 124.86 62.6672C124.365 63.159 123.693 63.4353 122.993 63.4353Z" fill="#E6E6E6"/>
<path d="M242.248 224.925C241.928 224.803 241.654 224.588 241.46 224.307C241.267 224.027 241.164 223.694 241.166 223.354V205.745C241.165 205.149 240.927 204.578 240.502 204.156C240.078 203.735 239.502 203.498 238.902 203.497H235.271C233.771 203.495 232.333 202.903 231.272 201.849C230.212 200.796 229.615 199.367 229.613 197.877V162.473C229.615 160.983 230.212 159.555 231.272 158.502C232.333 157.448 233.771 156.855 235.271 156.854H363.341C364.841 156.855 366.279 157.448 367.34 158.502C368.401 159.555 368.997 160.983 368.999 162.473V197.877C368.997 199.367 368.401 200.796 367.34 201.849C366.279 202.903 364.841 203.495 363.341 203.497H264.489C264.176 203.497 263.865 203.562 263.578 203.688C263.291 203.813 263.033 203.996 262.821 204.226L244.114 224.493C243.956 224.666 243.764 224.804 243.549 224.898C243.335 224.992 243.103 225.041 242.868 225.042C242.656 225.041 242.445 225.002 242.248 224.925Z" fill="white"/>
<path d="M242.248 224.925C241.928 224.803 241.654 224.588 241.46 224.307C241.267 224.027 241.164 223.694 241.166 223.354V205.745C241.165 205.149 240.927 204.578 240.502 204.156C240.078 203.735 239.502 203.498 238.902 203.497H235.271C233.771 203.495 232.333 202.903 231.272 201.849C230.212 200.796 229.615 199.367 229.613 197.877V162.473C229.615 160.983 230.212 159.555 231.272 158.502C232.333 157.448 233.771 156.855 235.271 156.854H363.341C364.841 156.855 366.279 157.448 367.34 158.502C368.401 159.555 368.997 160.983 368.999 162.473V197.877C368.997 199.367 368.401 200.796 367.34 201.849C366.279 202.903 364.841 203.495 363.341 203.497H264.489C264.176 203.497 263.865 203.562 263.578 203.688C263.291 203.813 263.033 203.996 262.821 204.226L244.114 224.493C243.956 224.666 243.764 224.804 243.549 224.898C243.335 224.992 243.103 225.041 242.868 225.042C242.656 225.041 242.445 225.002 242.248 224.925ZM235.271 157.603C233.971 157.604 232.725 158.118 231.805 159.031C230.886 159.944 230.369 161.182 230.367 162.473V197.877C230.369 199.169 230.886 200.407 231.805 201.32C232.725 202.233 233.971 202.747 235.271 202.748H238.902C239.702 202.749 240.469 203.065 241.035 203.627C241.601 204.189 241.919 204.95 241.92 205.745V223.354C241.92 223.543 241.977 223.727 242.085 223.883C242.192 224.039 242.344 224.159 242.521 224.227C242.698 224.296 242.892 224.309 243.077 224.267C243.262 224.224 243.43 224.126 243.559 223.987L262.265 203.72C262.548 203.414 262.892 203.17 263.275 203.002C263.658 202.835 264.071 202.748 264.49 202.748H363.341C364.641 202.747 365.888 202.233 366.807 201.32C367.727 200.407 368.244 199.169 368.245 197.877V162.473C368.244 161.182 367.727 159.944 366.807 159.031C365.888 158.118 364.641 157.604 363.341 157.603H235.271Z" fill="#3F3D56"/>
<path d="M202.332 235.889C197.08 239.228 190.995 241.05 184.759 241.148C178.524 241.247 172.384 239.619 167.027 236.446C167.97 234.704 169.164 233.109 170.571 231.71C172.743 229.543 175.386 227.899 178.298 226.905C181.209 225.91 184.311 225.592 187.366 225.974C190.42 226.356 193.346 227.429 195.918 229.109C198.49 230.789 200.641 233.033 202.203 235.668C202.245 235.739 202.29 235.814 202.332 235.889Z" fill="#1B66A4"/>
<path d="M183.204 217.985C192.407 217.985 199.867 210.575 199.867 201.436C199.867 192.296 192.407 184.887 183.204 184.887C174.001 184.887 166.541 192.296 166.541 201.436C166.541 210.575 174.001 217.985 183.204 217.985Z" fill="#2F2E41"/>
<path d="M195.604 213.108C198.889 207.139 196.68 199.656 190.67 196.393C184.66 193.13 177.125 195.323 173.839 201.292C170.554 207.261 172.763 214.745 178.773 218.008C184.783 221.271 192.318 219.077 195.604 213.108Z" fill="#FFB8B8"/>
<path d="M171.689 199.453C174.523 201.393 177.887 202.425 181.329 202.412C180.101 203.257 178.704 203.828 177.232 204.086C181.809 205.061 186.538 205.087 191.125 204.163C192.145 204.001 193.129 203.665 194.034 203.171C194.484 202.921 194.877 202.579 195.187 202.169C195.496 201.758 195.715 201.287 195.829 200.787C196.134 199.057 194.777 197.486 193.367 196.427C191.208 194.831 188.719 193.731 186.079 193.207C183.44 192.683 180.716 192.749 178.105 193.398C176.4 193.836 174.692 194.576 173.585 195.935C172.478 197.295 172.15 199.391 173.205 200.791L171.689 199.453Z" fill="#2F2E41"/>
<path d="M184.224 241.527C176.063 241.524 168.177 238.6 162.012 233.29C155.847 227.979 151.816 220.64 150.659 212.617C149.502 204.594 151.297 196.426 155.713 189.61C160.13 182.795 166.873 177.79 174.705 175.513C182.537 173.236 190.933 173.84 198.353 177.213C205.773 180.587 211.719 186.505 215.102 193.881C218.484 201.257 219.075 209.597 216.766 217.37C214.458 225.144 209.405 231.831 202.534 236.204C197.07 239.683 190.714 241.531 184.224 241.527ZM184.224 174.884C177.661 174.883 171.247 176.815 165.79 180.436C160.334 184.056 156.081 189.202 153.569 195.223C151.058 201.244 150.4 207.87 151.68 214.262C152.96 220.654 156.12 226.525 160.761 231.134C165.401 235.742 171.313 238.88 177.749 240.151C184.185 241.423 190.856 240.77 196.918 238.276C202.981 235.781 208.162 231.558 211.808 226.138C215.453 220.719 217.398 214.348 217.398 207.831C217.388 199.096 213.89 190.722 207.67 184.545C201.451 178.368 193.019 174.894 184.224 174.884Z" fill="#3F3D56"/>
<path d="M245.547 172.097C248.281 172.097 250.498 169.896 250.498 167.18C250.498 164.464 248.281 162.263 245.547 162.263C242.812 162.263 240.596 164.464 240.596 167.18C240.596 169.896 242.812 172.097 245.547 172.097Z" fill="#1B66A4"/>
<path d="M359.62 194.389H243.103C242.756 194.389 242.412 194.322 242.091 194.19C241.771 194.058 241.479 193.865 241.234 193.622C240.988 193.378 240.793 193.089 240.66 192.771C240.527 192.452 240.459 192.111 240.459 191.766C240.459 191.422 240.527 191.08 240.66 190.762C240.793 190.444 240.988 190.154 241.234 189.911C241.479 189.667 241.771 189.474 242.091 189.342C242.412 189.211 242.756 189.143 243.103 189.144H359.62C360.32 189.144 360.992 189.42 361.487 189.912C361.982 190.404 362.26 191.071 362.26 191.766C362.26 192.462 361.982 193.129 361.487 193.621C360.992 194.112 360.32 194.389 359.62 194.389Z" fill="#E6E6E6"/>
<path d="M321.661 183.243H243.103C242.756 183.243 242.412 183.176 242.091 183.044C241.771 182.913 241.479 182.72 241.234 182.476C240.988 182.232 240.793 181.943 240.66 181.625C240.527 181.306 240.459 180.965 240.459 180.62C240.459 180.276 240.527 179.935 240.66 179.616C240.793 179.298 240.988 179.009 241.234 178.765C241.479 178.521 241.771 178.328 242.091 178.197C242.412 178.065 242.756 177.998 243.103 177.998H321.661C322.361 177.999 323.031 178.275 323.526 178.767C324.021 179.259 324.298 179.925 324.298 180.62C324.298 181.315 324.021 181.982 323.526 182.474C323.031 182.966 322.361 183.242 321.661 183.243Z" fill="#E6E6E6"/>
<path d="M242.089 228.277C247.191 228.277 251.327 227.821 251.327 227.259C251.327 226.696 247.191 226.241 242.089 226.241C236.987 226.241 232.852 226.696 232.852 227.259C232.852 227.821 236.987 228.277 242.089 228.277Z" fill="#F2F2F2"/>
<path d="M159.53 108.469C164.632 108.469 168.768 108.013 168.768 107.451C168.768 106.889 164.632 106.433 159.53 106.433C154.429 106.433 150.293 106.889 150.293 107.451C150.293 108.013 154.429 108.469 159.53 108.469Z" fill="#F2F2F2"/>
</g>
<defs>
<clipPath id="clip0_111_6026">
<rect width="336" height="279" fill="white" transform="translate(33 0.5)"/>
</clipPath>
</defs>
</svg>
