<svg width="32" height="40" viewBox="0 0 32 40" fill="none" xmlns="http://www.w3.org/2000/svg">
<path d="M4.49984 33.5125L8.28525 31.9792C7.96581 31.0528 7.67064 30.1104 7.39975 29.1521C7.12887 28.1937 6.91292 27.2354 6.75192 26.2771L4.49984 27.8104V33.5125ZM12.1665 31.5H19.8332C20.4082 30.2222 20.8714 28.6652 21.2228 26.8291C21.5741 24.9929 21.7498 23.1158 21.7498 21.1979C21.7498 18.0354 21.2228 15.0409 20.1686 12.2145C19.1144 9.38804 17.7248 7.20751 15.9998 5.6729C14.2748 7.20623 12.8853 9.38676 11.8311 12.2145C10.7769 15.0422 10.2498 18.0367 10.2498 21.1979C10.2498 23.1146 10.4255 24.9916 10.7769 26.8291C11.1283 28.6665 11.5915 30.2235 12.1665 31.5ZM15.9998 21.9167C14.9457 21.9167 14.0436 21.5416 13.2935 20.7916C12.5434 20.0415 12.1678 19.1388 12.1665 18.0833C12.1652 17.0279 12.5409 16.1258 13.2935 15.377C14.0461 14.6282 14.9482 14.2525 15.9998 14.25C17.0514 14.2474 17.9542 14.6231 18.7081 15.377C19.462 16.1309 19.837 17.033 19.8332 18.0833C19.8293 19.1337 19.4543 20.0364 18.7081 20.7916C17.9619 21.5467 17.0591 21.9218 15.9998 21.9167ZM27.4998 33.5125V27.8104L25.2478 26.2771C25.088 27.2354 24.8727 28.1937 24.6018 29.1521C24.331 30.1104 24.0351 31.0528 23.7144 31.9792L27.4998 33.5125ZM15.9998 0.7854C19.1623 3.0854 21.5505 6.00832 23.1643 9.55415C24.7782 13.1 25.5844 17.2208 25.5832 21.9167L29.6082 24.6C30.1512 24.9514 30.5748 25.4146 30.8789 25.9896C31.183 26.5646 31.3344 27.1715 31.3332 27.8104V39.1667L21.7978 35.3333H10.2019L0.666504 39.1667V27.8104C0.666504 27.1715 0.818559 26.5646 1.12267 25.9896C1.42678 25.4146 1.84973 24.9514 2.3915 24.6L6.4165 21.9167C6.4165 17.2208 7.22342 13.1 8.83725 9.55415C10.4511 6.00832 12.8386 3.0854 15.9998 0.7854Z" fill="#133857"/>
</svg>
