<svg width="402" height="274" viewBox="0 0 402 274" fill="none" xmlns="http://www.w3.org/2000/svg">
<rect width="401" height="274" transform="translate(0.5)" fill="white"/>
<g clip-path="url(#clip0_111_6420)">
<path d="M19.2559 242.389L19.339 241.954C19.3575 241.859 21.2504 232.33 28.3464 226.801C35.4427 221.271 45.2232 221.704 45.3209 221.709L45.7669 221.732L45.6837 222.167C45.6652 222.262 43.7722 231.791 36.6763 237.32C29.58 242.85 19.7996 242.417 19.7018 242.412L19.2559 242.389ZM28.8276 227.409C22.8279 232.083 20.6676 239.727 20.2053 241.649C22.1978 241.658 30.2012 241.383 36.1951 236.713C42.1883 232.042 44.3534 224.395 44.8174 222.472C42.8237 222.463 34.8211 222.738 28.8276 227.409Z" fill="#F1F1F1"/>
<path d="M31.649 229.529C28.3983 237.835 19.8409 242.288 19.8409 242.288C19.8409 242.288 16.5538 233.273 19.8045 224.967C23.0552 216.661 31.6126 212.208 31.6126 212.208C31.6126 212.208 34.8997 221.223 31.649 229.529Z" fill="#F1F1F1"/>
<path d="M389.729 242.412C389.631 242.417 379.851 242.85 372.755 237.32C365.659 231.791 363.766 222.262 363.747 222.167L363.664 221.732L364.11 221.709C364.208 221.704 373.988 221.271 381.085 226.801C388.181 232.33 390.073 241.859 390.092 241.954L390.175 242.389L389.729 242.412ZM364.614 222.472C365.078 224.395 367.243 232.043 373.236 236.713C379.23 241.383 387.233 241.658 389.226 241.649C388.763 239.727 386.603 232.083 380.603 227.409C374.61 222.738 366.607 222.463 364.614 222.472Z" fill="#F1F1F1"/>
<path d="M377.781 229.529C381.032 237.835 389.589 242.288 389.589 242.288C389.589 242.288 392.876 233.273 389.626 224.967C386.375 216.661 377.817 212.208 377.817 212.208C377.817 212.208 374.53 221.223 377.781 229.529Z" fill="#F1F1F1"/>
<path d="M230.334 240.403L224.651 238.029L220.752 209.766H168.832L164.606 237.914L159.521 240.436C159.278 240.557 159.083 240.755 158.967 241C158.852 241.244 158.823 241.52 158.886 241.783C158.948 242.045 159.098 242.279 159.312 242.447C159.525 242.614 159.789 242.705 160.061 242.705H229.866C230.145 242.705 230.415 242.609 230.631 242.434C230.846 242.259 230.994 242.015 231.05 241.744C231.105 241.473 231.064 241.192 230.933 240.947C230.803 240.703 230.591 240.511 230.334 240.403Z" fill="#E6E6E6"/>
<path d="M322.6 213.526H67.5533C66.2152 213.523 64.9329 212.994 63.9877 212.054C63.0425 211.114 62.5117 209.841 62.5117 208.514V172.836H327.642V208.514C327.642 209.841 327.111 211.114 326.166 212.054C325.22 212.994 323.938 213.523 322.6 213.526Z" fill="#CCCCCC"/>
<path d="M327.909 189.698H62.2793V37.0425C62.2812 35.4405 62.9235 33.9046 64.0655 32.7718C65.2075 31.639 66.7558 31.0018 68.3707 31H321.817C323.432 31.0018 324.98 31.639 326.122 32.7718C327.264 33.9046 327.907 35.4404 327.909 37.0425V189.698Z" fill="#3F3D56"/>
<path d="M312.043 178.619H78.1433C76.8983 178.617 75.7046 178.126 74.8243 177.253C73.9439 176.379 73.4487 175.195 73.4473 173.96V46.7381C73.4487 45.503 73.9439 44.3189 74.8242 43.4456C75.7046 42.5722 76.8982 42.0809 78.1433 42.0795H312.043C313.288 42.0809 314.481 42.5722 315.362 43.4456C316.242 44.3189 316.737 45.503 316.739 46.7381V173.96C316.737 175.195 316.242 176.379 315.362 177.253C314.481 178.126 313.288 178.617 312.043 178.619Z" fill="white"/>
<path d="M400.906 243H1.11913C0.984497 243.003 0.852698 242.961 0.744271 242.882C0.635844 242.803 0.556878 242.69 0.519676 242.562C0.496451 242.475 0.493748 242.383 0.511772 242.294C0.529796 242.206 0.568066 242.123 0.623642 242.051C0.679217 241.979 0.750614 241.921 0.832339 241.881C0.914064 241.841 1.00394 241.821 1.09504 241.821H400.857C401 241.816 401.139 241.859 401.253 241.942C401.368 242.026 401.45 242.146 401.487 242.282C401.506 242.368 401.506 242.458 401.486 242.544C401.465 242.63 401.426 242.71 401.37 242.779C401.314 242.848 401.244 242.904 401.163 242.942C401.083 242.98 400.995 243 400.906 243Z" fill="#CCCCCC"/>
<path d="M124.507 90.1931H86.0234V93.7783H124.507V90.1931Z" fill="#E5E5E5"/>
<path d="M124.507 98.8877H86.0234V102.473H124.507V98.8877Z" fill="#E5E5E5"/>
<path d="M124.507 107.774H86.0234V111.359H124.507V107.774Z" fill="#E5E5E5"/>
<path d="M124.507 116.661H86.0234V120.246H124.507V116.661Z" fill="#E5E5E5"/>
<path d="M115.392 127.953H95.1387V131.064H115.392V127.953Z" fill="#1B66A4"/>
<path d="M184.391 112.429H184.023V113.524H184.391V112.429Z" fill="#E5E5E5"/>
<path d="M184.391 136.857H184.023V134.524H184.391V136.857ZM184.391 132.191H184.023V129.858H184.391V132.191ZM184.391 127.524H184.023V125.191H184.391V127.524ZM184.391 122.858H184.023V120.524H184.391V122.858ZM184.391 118.191H184.023V115.858H184.391V118.191Z" fill="#E5E5E5"/>
<path d="M184.391 139.191H184.023V140.286H184.391V139.191Z" fill="#E5E5E5"/>
<path d="M224.684 112.429H224.316V113.524H224.684V112.429Z" fill="#E5E5E5"/>
<path d="M224.684 136.857H224.316V134.524H224.684V136.857ZM224.684 132.191H224.316V129.858H224.684V132.191ZM224.684 127.524H224.316V125.191H224.684V127.524ZM224.684 122.858H224.316V120.524H224.684V122.858ZM224.684 118.191H224.316V115.858H224.684V118.191Z" fill="#E5E5E5"/>
<path d="M224.684 139.191H224.316V140.286H224.684V139.191Z" fill="#E5E5E5"/>
<path d="M245.011 91.0058H244.643V92.1009H245.011V91.0058Z" fill="#E5E5E5"/>
<path d="M245.011 136.948H244.643V134.706H245.011V136.948ZM245.011 132.464H244.643V130.221H245.011V132.464ZM245.011 127.979H244.643V125.737H245.011V127.979ZM245.011 123.494H244.643V121.252H245.011V123.494ZM245.011 119.009H244.643V116.767H245.011V119.009ZM245.011 114.525H244.643V112.282H245.011V114.525ZM245.011 110.04H244.643V107.798H245.011V110.04ZM245.011 105.555H244.643V103.313H245.011V105.555ZM245.011 101.07H244.643V98.828H245.011V101.07ZM245.011 96.5857H244.643V94.3433H245.011V96.5857Z" fill="#E5E5E5"/>
<path d="M245.011 139.191H244.643V140.286H245.011V139.191Z" fill="#E5E5E5"/>
<path d="M265.132 82.2449H264.764V83.34H265.132V82.2449Z" fill="#E5E5E5"/>
<path d="M265.132 136.957H264.764V134.723H265.132V136.957ZM265.132 132.489H264.764V130.255H265.132V132.489ZM265.132 128.021H264.764V125.787H265.132V128.021ZM265.132 123.553H264.764V121.319H265.132V123.553ZM265.132 119.085H264.764V116.851H265.132V119.085ZM265.132 114.617H264.764V112.382H265.132V114.617ZM265.132 110.148H264.764V107.914H265.132V110.148ZM265.132 105.68H264.764V103.446H265.132V105.68ZM265.132 101.212H264.764V98.9783H265.132V101.212ZM265.132 96.7443H264.764V94.5102H265.132V96.7443ZM265.132 92.2762H264.764V90.0422H265.132V92.2762ZM265.132 87.8082H264.764V85.5741H265.132V87.8082Z" fill="#E5E5E5"/>
<path d="M265.132 139.191H264.764V140.286H265.132V139.191Z" fill="#E5E5E5"/>
<path d="M204.63 97.759H204.262V98.8542H204.63V97.759Z" fill="#E5E5E5"/>
<path d="M204.63 137.068H204.262V134.945H204.63V137.068ZM204.63 132.822H204.262V130.699H204.63V132.822ZM204.63 128.576H204.262V126.453H204.63V128.576ZM204.63 124.33H204.262V122.207H204.63V124.33ZM204.63 120.084H204.262V117.961H204.63V120.084ZM204.63 115.838H204.262V113.715H204.63V115.838ZM204.63 111.592H204.262V109.469H204.63V111.592ZM204.63 107.346H204.262V105.223H204.63V107.346ZM204.63 103.1H204.262V100.977H204.63V103.1Z" fill="#E5E5E5"/>
<path d="M204.63 139.191H204.262V140.286H204.63V139.191Z" fill="#E5E5E5"/>
<path d="M285.543 140.794H163.719C163.618 140.794 163.521 140.755 163.45 140.684C163.378 140.613 163.338 140.517 163.338 140.416V82.493C163.338 82.3927 163.378 82.2965 163.45 82.2256C163.521 82.1546 163.618 82.1148 163.719 82.1148C163.82 82.1148 163.917 82.1546 163.989 82.2256C164.06 82.2965 164.1 82.3927 164.1 82.493V140.038H285.543C285.644 140.038 285.741 140.078 285.813 140.149C285.884 140.22 285.924 140.316 285.924 140.416C285.924 140.517 285.884 140.613 285.813 140.684C285.741 140.755 285.644 140.794 285.543 140.794Z" fill="#3F3D56"/>
<path d="M224.668 112.937L204.414 97.8878L184.436 112.732L183.979 112.126L204.414 96.9428L224.572 111.921L244.604 90.1747L244.684 90.1422L264.89 82.0659L265.175 82.768L245.049 90.8118L224.668 112.937Z" fill="#3F3D56"/>
<path d="M184.207 114.698C185.471 114.698 186.495 113.682 186.495 112.429C186.495 111.176 185.471 110.16 184.207 110.16C182.944 110.16 181.92 111.176 181.92 112.429C181.92 113.682 182.944 114.698 184.207 114.698Z" fill="#1B66A4"/>
<path d="M204.413 99.9484C205.676 99.9484 206.7 98.9324 206.7 97.6792C206.7 96.4259 205.676 95.4099 204.413 95.4099C203.149 95.4099 202.125 96.4259 202.125 97.6792C202.125 98.9324 203.149 99.9484 204.413 99.9484Z" fill="#1B66A4"/>
<path d="M224.62 114.698C225.883 114.698 226.907 113.682 226.907 112.429C226.907 111.176 225.883 110.16 224.62 110.16C223.356 110.16 222.332 111.176 222.332 112.429C222.332 113.682 223.356 114.698 224.62 114.698Z" fill="#1B66A4"/>
<path d="M244.827 92.7625C246.09 92.7625 247.114 91.7465 247.114 90.4933C247.114 89.24 246.09 88.2241 244.827 88.2241C243.563 88.2241 242.539 89.24 242.539 90.4933C242.539 91.7465 243.563 92.7625 244.827 92.7625Z" fill="#1B66A4"/>
<path d="M265.032 84.442C266.295 84.442 267.319 83.426 267.319 82.1728C267.319 80.9195 266.295 79.9036 265.032 79.9036C263.768 79.9036 262.744 80.9195 262.744 82.1728C262.744 83.426 263.768 84.442 265.032 84.442Z" fill="#1B66A4"/>
<path d="M136.535 42.0794H135.756V178.618H136.535V42.0794Z" fill="#E5E5E5"/>
<path d="M320.179 177.221C320.448 176.903 320.643 176.531 320.752 176.13C320.86 175.73 320.878 175.31 320.805 174.902C320.733 174.493 320.57 174.105 320.33 173.766C320.09 173.426 319.778 173.143 319.415 172.936L321.316 163.028L316.44 165.044L315.382 174.144C315.072 174.771 315.004 175.489 315.192 176.162C315.38 176.835 315.811 177.417 316.402 177.796C316.994 178.175 317.705 178.326 318.401 178.22C319.097 178.114 319.729 177.759 320.179 177.221Z" fill="#FFB7B7"/>
<path d="M344.494 238.017H340.365L338.4 222.216L344.495 222.217L344.494 238.017Z" fill="#FFB7B7"/>
<path d="M345.547 241.987L332.232 241.987V241.82C332.233 240.457 332.779 239.149 333.75 238.185C334.722 237.221 336.04 236.679 337.415 236.679L345.547 236.679L345.547 241.987Z" fill="#2F2E41"/>
<path d="M321.928 238.017H317.799L315.834 222.216L321.929 222.217L321.928 238.017Z" fill="#FFB7B7"/>
<path d="M321.969 241.987L308.654 241.987V241.82C308.654 240.457 309.2 239.149 310.172 238.185C311.144 237.221 312.462 236.679 313.837 236.679L321.969 236.679L321.969 241.987Z" fill="#2F2E41"/>
<path d="M321.589 171.285L317.547 180.522L314.213 233.614L322.634 233.28L324.933 207.971L332.028 185.428L336.106 210.559L337.79 232.612L344.758 232.911L347.534 171.285H321.589Z" fill="#2F2E41"/>
<path d="M341.792 125.705L330.078 125.995L323.2 129.498L322.823 155.338L318.533 173.179C318.533 173.179 345.334 175.009 349.039 172.336L344.66 151.954L350.533 129.927L341.792 125.705Z" fill="#1B66A4"/>
<path d="M324.452 129.902L323.201 129.498C323.201 129.498 319.231 132.025 319.609 138.135C319.609 138.135 319.46 141.296 319.602 143.4C319.765 145.814 314.887 169.796 314.887 169.796H321.96L324.991 148.078L324.452 129.902Z" fill="#1B66A4"/>
<path d="M350.351 177.555C350.082 177.238 349.886 176.865 349.778 176.465C349.67 176.064 349.651 175.644 349.724 175.236C349.797 174.827 349.959 174.439 350.199 174.1C350.439 173.76 350.752 173.477 351.114 173.27L349.213 163.362L354.09 165.378L355.148 174.478C355.458 175.105 355.525 175.823 355.337 176.496C355.149 177.169 354.718 177.751 354.127 178.13C353.536 178.51 352.825 178.661 352.129 178.555C351.433 178.449 350.8 178.093 350.351 177.555Z" fill="#FFB7B7"/>
<path d="M348.771 130.236L350.022 129.832C350.022 129.832 353.992 132.359 353.614 138.469C353.614 138.469 353.763 141.63 353.621 143.735C353.458 146.148 355.642 170.13 355.642 170.13H348.568L345.537 148.412L348.771 130.236Z" fill="#1B66A4"/>
<path d="M344.667 114.864C344.667 116.457 344.191 118.014 343.299 119.339C342.406 120.664 341.138 121.696 339.654 122.306C338.17 122.916 336.537 123.075 334.962 122.765C333.387 122.454 331.94 121.687 330.804 120.56C329.669 119.433 328.895 117.998 328.582 116.435C328.268 114.873 328.429 113.253 329.044 111.781C329.659 110.309 330.699 109.051 332.035 108.166C333.37 107.28 334.94 106.808 336.546 106.808C337.61 106.805 338.664 107.01 339.648 107.412C340.632 107.813 341.526 108.403 342.28 109.147C343.034 109.892 343.633 110.776 344.043 111.75C344.452 112.724 344.664 113.768 344.667 114.823C344.667 114.837 344.667 114.85 344.667 114.864Z" fill="#FFB7B7"/>
<path d="M328.454 104.043C329.405 102.014 331.246 102.415 332.856 103.103C334.895 102.654 336.834 101.311 339.031 102.106C341.195 105.228 348.46 104.309 346.914 109.392C346.912 110.61 349.225 109.901 348.821 111.896C350.046 115.735 344.4 123.005 341.158 121.474C341.96 120.016 343.791 116.706 341.014 116.378C335.039 121.892 340.397 105.876 332.89 110.534C330.404 112.79 327.001 106.3 328.454 104.043Z" fill="#2F2E41"/>
</g>
<defs>
<clipPath id="clip0_111_6420">
<rect width="401" height="212" fill="white" transform="translate(0.5 31)"/>
</clipPath>
</defs>
</svg>
