<svg width="402" height="274" viewBox="0 0 402 274" fill="none" xmlns="http://www.w3.org/2000/svg">
<rect width="401" height="274" transform="translate(0.5)" fill="white"/>
<g clip-path="url(#clip0_111_6007)">
<path d="M22.8457 238.854C14.3219 247.103 12.5527 260.634 12.5527 260.634C12.5527 260.634 24.6033 260.789 33.127 252.54C41.6508 244.29 43.42 230.759 43.42 230.759C43.42 230.759 31.3694 230.604 22.8457 238.854Z" fill="#F2F2F2"/>
<path d="M26.7843 242.136C23.1535 254.164 12.7149 261 12.7149 261C12.7149 261 8.16309 248.335 11.7939 236.306C15.4247 224.278 25.8632 217.443 25.8632 217.443C25.8632 217.443 30.4151 230.108 26.7843 242.136Z" fill="#F2F2F2"/>
<path d="M115.755 64.1811C113.826 61.3446 111.101 58.7201 110.928 55.22C110.77 52.0097 112.879 48.8224 111.989 45.7511C111.306 43.3896 109.049 41.9647 106.845 41.2102C102.624 39.7863 98.1068 39.9837 93.9949 41.7717L94.2181 41.593C91.7084 40.5783 88.7748 41.6258 86.8003 43.566C84.8256 45.5062 83.6521 48.1955 82.7416 50.8904C81.8309 53.5854 81.1253 56.3789 79.8602 58.9055C78.5948 61.432 76.6575 63.7297 74.1016 64.6029C74.9572 66.5402 77.6321 67.2048 79.2009 65.8699C79.6017 65.5005 79.9619 65.0778 80.2739 64.6108C81.3202 63.1667 82.3665 61.7226 83.4129 60.2786C84.4895 62.4519 82.8812 65.4516 84.2046 67.4636C84.8869 68.5013 86.1332 68.8953 87.2907 69.1779C96.3376 71.3689 105.722 70.9738 114.601 68.0281C115.315 67.7895 116.102 67.4607 116.398 66.7276C116.74 65.8812 116.262 64.927 115.755 64.1811Z" fill="#2F2E41"/>
<path d="M141.408 75.2506C141.351 75.5325 141.314 75.819 141.298 76.1075L121.524 89.0553L116.718 85.9148L111.594 93.5284L119.626 100.027C120.275 100.552 121.057 100.823 121.853 100.801C122.65 100.779 123.419 100.465 124.044 99.9044L144.435 81.6463C145.355 82.0329 146.357 82.0924 147.308 81.8168C148.258 81.5412 149.113 80.9436 149.757 80.1035C150.401 79.2635 150.804 78.2207 150.914 77.1139C151.023 76.0071 150.833 74.8888 150.369 73.9076C149.904 72.9265 149.188 72.1291 148.314 71.6214C147.441 71.1138 146.452 70.92 145.479 71.0658C144.507 71.2115 143.596 71.69 142.869 72.4376C142.141 73.1851 141.632 74.1663 141.408 75.2506Z" fill="#FFB7B7"/>
<path d="M120.863 89.6685L114.473 99.0698C114.291 99.3373 114.06 99.5571 113.797 99.7144C113.533 99.8717 113.243 99.9626 112.946 99.9811C112.649 99.9996 112.351 99.9451 112.074 99.8215C111.797 99.6978 111.547 99.5078 111.341 99.2645L104.106 90.7372C102.904 89.6741 102.122 88.113 101.933 86.3967C101.744 84.6803 102.163 82.9489 103.097 81.5825C104.032 80.2162 105.406 79.3265 106.917 79.1088C108.429 78.8911 109.955 79.3632 111.161 80.4215L120.235 86.1805C120.495 86.3455 120.72 86.5721 120.896 86.8449C121.071 87.1176 121.193 87.4301 121.253 87.7611C121.312 88.0922 121.309 88.4339 121.241 88.763C121.174 89.0922 121.045 89.401 120.863 89.6685Z" fill="#1B66A4"/>
<path d="M112.067 253.475L117.711 253.474L120.395 228.768L112.066 228.768L112.067 253.475Z" fill="#FFB7B7"/>
<path d="M110.627 251.383L121.741 251.383H121.741C123.619 251.383 125.421 252.23 126.749 253.737C128.077 255.245 128.824 257.29 128.824 259.422V259.683L110.627 259.684L110.627 251.383Z" fill="#2F2E41"/>
<path d="M73.4013 253.475L79.0447 253.474L81.7292 228.768L73.4004 228.768L73.4013 253.475Z" fill="#FFB7B7"/>
<path d="M71.9609 251.383L83.0747 251.383H83.0751C84.9535 251.383 86.7549 252.23 88.0831 253.737C89.4113 255.245 90.1575 257.29 90.1577 259.422V259.683L71.9613 259.684L71.9609 251.383Z" fill="#2F2E41"/>
<path d="M108.678 60.6885C109.266 54.6112 105.402 49.1438 100.048 48.4767C94.6935 47.8096 89.8766 52.1954 89.2888 58.2726C88.7011 64.3499 92.5651 69.8173 97.9193 70.4844C103.274 71.1515 108.091 66.7657 108.678 60.6885Z" fill="#FFB7B7"/>
<path d="M104.689 76.0757L110.435 79.3065C110.435 79.3065 116.855 91.9695 113.172 103.986C111.384 109.821 116.419 128.418 116.419 128.418C116.419 128.418 124.22 212.66 124.244 238.659C114.553 240.35 105.347 242.44 104.887 237.216C104.426 231.991 99.3874 170.216 99.3874 170.216C99.3874 170.216 92.4581 238.783 86.9344 239.828C81.4107 240.873 70.3633 239.305 70.3633 239.305C70.3633 239.305 79.1338 138.868 85.1178 132.598L86.0384 127.374L86.0138 80.4752L92.9081 76.7408L104.689 76.0757Z" fill="#2F2E41"/>
<path d="M84.1356 147.273C84.7714 146.882 85.324 146.338 85.7546 145.679C86.1851 145.02 86.4831 144.262 86.6276 143.458C86.772 142.654 86.7594 141.823 86.5906 141.026C86.4217 140.228 86.1009 139.482 85.6505 138.84L92.3327 88.2847L83.6026 87.809L78.3936 138.155C77.4938 139.085 76.9258 140.357 76.7973 141.731C76.6688 143.105 76.9888 144.485 77.6966 145.608C78.4043 146.732 79.4507 147.522 80.6375 147.829C81.8242 148.136 83.0689 147.938 84.1356 147.273Z" fill="#FFB7B7"/>
<path d="M92.1435 100.952L81.7026 100.204C81.4055 100.182 81.116 100.089 80.8537 99.9289C80.5914 99.7692 80.3625 99.5471 80.1826 99.2779C80.0028 99.0087 79.8761 98.6987 79.8114 98.3689C79.7466 98.0391 79.7452 97.6974 79.8073 97.367L81.9828 85.7889C82.0871 84.0641 82.7898 82.4567 83.9368 81.3191C85.0838 80.1816 86.5814 79.6068 88.1013 79.7208C89.6211 79.8348 91.0391 80.6282 92.0442 81.9272C93.0494 83.2262 93.5596 84.9246 93.4631 86.65L94.3381 98.4083C94.3631 98.7449 94.3238 99.0838 94.223 99.4016C94.1222 99.7195 93.9622 100.009 93.754 100.25C93.5457 100.492 93.294 100.679 93.0161 100.8C92.7382 100.922 92.4406 100.973 92.1435 100.952Z" fill="#1B66A4"/>
<path d="M380.702 53.0127H149.814C148.129 53.0127 146.512 53.7727 145.32 55.1254C144.129 56.4781 143.459 58.3128 143.459 60.2259V206.245C143.459 208.158 144.129 209.992 145.32 211.345C146.512 212.698 148.129 213.458 149.814 213.458H380.702C382.388 213.458 384.004 212.698 385.196 211.345C386.388 209.992 387.057 208.158 387.057 206.245V60.2259C387.057 58.3128 386.388 56.4781 385.196 55.1254C384.004 53.7727 382.388 53.0127 380.702 53.0127Z" fill="#3F3D56"/>
<path d="M378.539 65.7604H151.98V210.82H378.539V65.7604Z" fill="white"/>
<path d="M265.066 61.8042C266.349 61.8042 267.39 60.6234 267.39 59.1667C267.39 57.7101 266.349 56.5293 265.066 56.5293C263.783 56.5293 262.742 57.7101 262.742 59.1667C262.742 60.6234 263.783 61.8042 265.066 61.8042Z" fill="white"/>
<path d="M313.747 210.82H151.98V65.7604L313.747 210.82Z" fill="#F2F2F2"/>
<path d="M393.419 208.183H371.308V206.375C371.308 206.28 371.275 206.188 371.216 206.121C371.157 206.054 371.076 206.016 370.993 206.016H363.412C363.37 206.016 363.329 206.025 363.291 206.044C363.252 206.062 363.218 206.088 363.188 206.121C363.159 206.155 363.136 206.194 363.12 206.238C363.104 206.281 363.096 206.328 363.096 206.375V208.183H358.358V206.375C358.358 206.328 358.35 206.281 358.334 206.238C358.318 206.194 358.295 206.155 358.265 206.121C358.236 206.088 358.201 206.062 358.163 206.044C358.125 206.025 358.084 206.016 358.042 206.016H350.461C350.42 206.016 350.379 206.025 350.34 206.044C350.302 206.062 350.267 206.088 350.238 206.121C350.209 206.155 350.185 206.194 350.169 206.238C350.154 206.281 350.145 206.328 350.145 206.375V208.183H345.407V206.375C345.407 206.328 345.399 206.281 345.383 206.238C345.367 206.194 345.344 206.155 345.315 206.121C345.286 206.088 345.251 206.062 345.212 206.044C345.174 206.025 345.133 206.016 345.092 206.016H337.511C337.469 206.016 337.428 206.025 337.39 206.044C337.352 206.062 337.317 206.088 337.287 206.121C337.258 206.155 337.235 206.194 337.219 206.238C337.203 206.281 337.195 206.328 337.195 206.375V208.183H332.457V206.375C332.457 206.328 332.449 206.281 332.433 206.238C332.417 206.194 332.394 206.155 332.364 206.121C332.335 206.088 332.3 206.062 332.262 206.044C332.224 206.025 332.183 206.016 332.141 206.016H324.56C324.519 206.016 324.478 206.025 324.439 206.044C324.401 206.062 324.366 206.088 324.337 206.121C324.308 206.155 324.284 206.194 324.268 206.238C324.253 206.281 324.244 206.328 324.244 206.375V208.183H319.506V206.375C319.506 206.328 319.498 206.281 319.482 206.238C319.466 206.194 319.443 206.155 319.414 206.121C319.385 206.088 319.35 206.062 319.311 206.044C319.273 206.025 319.232 206.016 319.191 206.016H311.61C311.568 206.016 311.527 206.025 311.489 206.044C311.451 206.062 311.416 206.088 311.386 206.121C311.357 206.155 311.334 206.194 311.318 206.238C311.302 206.281 311.294 206.328 311.294 206.375V208.183H306.556V206.375C306.556 206.328 306.548 206.281 306.532 206.238C306.516 206.194 306.493 206.155 306.463 206.121C306.434 206.088 306.399 206.062 306.361 206.044C306.323 206.025 306.282 206.016 306.24 206.016H298.659C298.618 206.016 298.577 206.025 298.538 206.044C298.5 206.062 298.465 206.088 298.436 206.121C298.407 206.155 298.383 206.194 298.367 206.238C298.352 206.281 298.343 206.328 298.343 206.375V208.183H293.605V206.375C293.605 206.328 293.597 206.281 293.581 206.238C293.566 206.194 293.542 206.155 293.513 206.121C293.484 206.088 293.449 206.062 293.41 206.044C293.372 206.025 293.331 206.016 293.29 206.016H233.907C233.865 206.016 233.824 206.025 233.786 206.044C233.748 206.062 233.713 206.088 233.683 206.121C233.654 206.155 233.631 206.194 233.615 206.238C233.599 206.281 233.591 206.328 233.591 206.375V208.183H228.853V206.375C228.853 206.328 228.845 206.281 228.829 206.238C228.813 206.194 228.79 206.155 228.76 206.121C228.731 206.088 228.696 206.062 228.658 206.044C228.62 206.025 228.579 206.016 228.537 206.016H220.956C220.915 206.016 220.874 206.025 220.835 206.044C220.797 206.062 220.762 206.088 220.733 206.121C220.704 206.155 220.68 206.194 220.664 206.238C220.649 206.281 220.64 206.328 220.64 206.375V208.183H215.902V206.375C215.902 206.328 215.894 206.281 215.878 206.238C215.863 206.194 215.839 206.155 215.81 206.121C215.781 206.088 215.746 206.062 215.707 206.044C215.669 206.026 215.628 206.016 215.587 206.016H208.006C207.964 206.016 207.923 206.025 207.885 206.044C207.847 206.062 207.812 206.088 207.782 206.121C207.753 206.155 207.73 206.194 207.714 206.238C207.698 206.281 207.69 206.328 207.69 206.375V208.183H202.952V206.375C202.952 206.328 202.944 206.281 202.928 206.238C202.912 206.194 202.889 206.155 202.859 206.121C202.83 206.088 202.795 206.062 202.757 206.044C202.719 206.025 202.678 206.016 202.636 206.016H195.055C195.014 206.016 194.973 206.025 194.934 206.044C194.896 206.062 194.861 206.088 194.832 206.121C194.803 206.155 194.779 206.194 194.763 206.238C194.748 206.281 194.739 206.328 194.739 206.375V208.183H190.001V206.375C190.001 206.328 189.993 206.281 189.977 206.238C189.962 206.194 189.938 206.155 189.909 206.121C189.88 206.088 189.845 206.062 189.806 206.044C189.768 206.025 189.727 206.016 189.686 206.016H182.105C182.063 206.016 182.022 206.025 181.984 206.044C181.946 206.062 181.911 206.088 181.881 206.121C181.852 206.155 181.829 206.194 181.813 206.238C181.797 206.281 181.789 206.328 181.789 206.375V208.183H177.051V206.375C177.051 206.328 177.043 206.281 177.027 206.238C177.011 206.194 176.988 206.155 176.958 206.121C176.929 206.088 176.894 206.062 176.856 206.044C176.818 206.025 176.777 206.016 176.735 206.016H169.154C169.071 206.016 168.99 206.054 168.931 206.121C168.872 206.188 168.838 206.28 168.838 206.375V208.183H164.1V206.375C164.1 206.328 164.092 206.281 164.076 206.238C164.061 206.194 164.037 206.155 164.008 206.121C163.979 206.088 163.944 206.062 163.905 206.044C163.867 206.026 163.826 206.016 163.785 206.016H156.204C156.12 206.016 156.04 206.054 155.98 206.121C155.921 206.188 155.888 206.28 155.888 206.375V208.183H141.358C140.363 208.183 139.377 208.405 138.457 208.838C137.537 209.27 136.702 209.904 135.998 210.703C135.294 211.502 134.735 212.451 134.354 213.495C133.973 214.539 133.777 215.657 133.777 216.787V220.678C133.777 222.96 134.576 225.149 135.998 226.762C137.419 228.376 139.348 229.283 141.358 229.283H393.419C395.43 229.283 397.358 228.376 398.779 226.762C400.201 225.149 401 222.96 401 220.678V216.787C401 215.657 400.804 214.539 400.423 213.495C400.042 212.451 399.483 211.502 398.779 210.703C398.075 209.904 397.24 209.27 396.32 208.838C395.4 208.405 394.414 208.183 393.419 208.183Z" fill="#3F3D56"/>
<path d="M269.618 191.799C269.542 192.004 269.457 192.203 269.363 192.397C268.868 193.432 268.17 194.324 267.322 195.002C266.318 195.804 265.139 196.278 263.914 196.372C262.689 196.465 261.465 196.175 260.375 195.533C259.285 194.891 258.372 193.922 257.734 192.731C257.097 191.54 256.76 190.173 256.76 188.779V187.551H257.678C261.245 190.169 265.372 191.637 269.618 191.799Z" fill="#3F3D56"/>
<path d="M282.72 187.911V188.78C282.72 190.47 282.224 192.113 281.311 193.449C280.397 194.784 279.117 195.736 277.673 196.153C276.23 196.571 274.705 196.431 273.339 195.755C271.974 195.079 270.846 193.906 270.133 192.421C270.035 192.223 269.946 192.018 269.867 191.809C270.063 191.815 270.256 191.818 270.453 191.818C274.781 191.824 279.026 190.471 282.72 187.911Z" fill="#3F3D56"/>
<path d="M291.75 96.0676C291.549 96.0341 291.345 96.0128 291.141 95.9976C293.459 102.063 293.62 108.911 291.589 115.108C291.793 115.081 291.994 115.044 292.196 115.001C294.162 114.569 295.929 113.359 297.183 111.586C298.437 109.813 299.095 107.593 299.042 105.32C298.988 103.048 298.226 100.87 296.891 99.1761C295.556 97.4817 293.734 96.3802 291.75 96.0676Z" fill="#3F3D56"/>
<path d="M249.762 95.9976C249.558 96.0128 249.354 96.0341 249.152 96.0676C247.168 96.3803 245.347 97.4818 244.011 99.1761C242.676 100.87 241.914 103.048 241.86 105.32C241.807 107.593 242.466 109.813 243.719 111.586C244.973 113.358 246.74 114.569 248.706 115.001C248.908 115.044 249.109 115.081 249.313 115.108C247.282 108.911 247.443 102.063 249.762 95.9976Z" fill="#3F3D56"/>
<path d="M291.751 96.0676C289.539 90.0709 285.442 85.2214 280.256 82.4613C275.07 79.7012 269.166 79.2276 263.69 81.1325C258.213 83.0374 253.556 87.1848 250.624 92.7689C247.691 98.353 246.691 104.975 247.82 111.349C248.948 117.723 252.123 123.393 256.729 127.258C261.334 131.123 267.041 132.907 272.74 132.263C278.44 131.619 283.725 128.594 287.569 123.775C291.413 118.955 293.542 112.686 293.542 106.185C293.541 102.711 292.932 99.2724 291.751 96.0676ZM291.59 115.108C289.626 121.1 285.757 126.041 280.744 128.958C275.732 131.875 269.939 132.556 264.506 130.869C259.073 129.181 254.394 125.247 251.388 119.839C248.383 114.432 247.269 107.944 248.267 101.652C249.265 95.3593 252.302 89.7188 256.78 85.8403C261.258 81.9617 266.852 80.1261 272.463 80.6946C278.073 81.2632 283.293 84.1947 287.095 88.9123C290.896 93.6298 293.005 99.7917 293.005 106.185C293.004 109.231 292.525 112.253 291.59 115.108Z" fill="#3F3D56"/>
<path d="M282.265 100.243H258.638C257.392 100.243 256.197 100.805 255.316 101.805C254.434 102.805 253.939 104.161 253.939 105.576C253.939 106.99 254.434 108.347 255.316 109.347C256.197 110.347 257.392 110.909 258.638 110.909H282.265C283.511 110.909 284.706 110.347 285.587 109.347C286.468 108.347 286.963 106.99 286.963 105.576C286.963 104.161 286.468 102.805 285.587 101.805C284.706 100.805 283.511 100.243 282.265 100.243Z" fill="#3F3D56"/>
<path d="M291.591 151.726C291.505 151.546 291.416 151.369 291.325 151.196C291.322 151.19 291.319 151.186 291.317 151.18C289.204 147.076 286.188 143.665 282.563 141.283C278.939 138.901 274.831 137.63 270.643 137.594C266.455 137.559 262.331 138.759 258.675 141.079C255.019 143.398 251.958 146.757 249.791 150.825C247.624 154.893 246.426 159.531 246.315 164.283C246.204 169.035 247.184 173.738 249.158 177.931C251.131 182.123 254.032 185.661 257.574 188.197C261.116 190.734 265.179 192.181 269.363 192.397C269.618 192.412 269.875 192.421 270.133 192.421C270.241 192.427 270.345 192.427 270.453 192.427C274.769 192.434 279.007 191.119 282.72 188.621C286.753 185.912 290.01 181.938 292.101 177.178C292.103 177.172 292.106 177.169 292.109 177.163C292.189 176.98 292.267 176.794 292.345 176.605C293.96 172.685 294.733 168.387 294.602 164.063C294.471 159.738 293.439 155.51 291.591 151.726ZM291.822 176.437C291.744 176.626 291.663 176.812 291.58 176.995C289.583 181.502 286.514 185.283 282.72 187.911C279.026 190.471 274.781 191.824 270.453 191.818C270.257 191.818 270.063 191.815 269.867 191.809C269.784 191.809 269.701 191.806 269.618 191.8C265.518 191.637 261.527 190.266 258.036 187.821C254.545 185.376 251.675 181.942 249.709 177.856C247.742 173.77 246.747 169.173 246.821 164.518C246.894 159.863 248.034 155.31 250.129 151.307C252.223 147.304 255.2 143.989 258.765 141.688C262.331 139.386 266.363 138.179 270.465 138.183C274.567 138.188 278.597 139.404 282.159 141.713C285.721 144.022 288.692 147.343 290.78 151.351C290.782 151.357 290.785 151.36 290.788 151.366C290.882 151.54 290.973 151.717 291.059 151.893C292.902 155.619 293.932 159.791 294.065 164.06C294.198 168.33 293.428 172.574 291.822 176.437Z" fill="#3F3D56"/>
<path d="M289.022 152.536C288.552 152.156 287.989 151.951 287.411 151.948H276.852C276.116 151.948 275.411 152.28 274.89 152.87C274.37 153.461 274.078 154.261 274.078 155.096C274.078 155.931 274.37 156.732 274.89 157.322C275.411 157.913 276.116 158.244 276.852 158.244H287.411C287.6 158.245 287.788 158.224 287.972 158.18C288.156 158.135 288.336 158.071 288.509 157.988C288.961 157.768 289.352 157.415 289.644 156.965C289.936 156.516 290.117 155.987 290.169 155.433C290.221 154.878 290.143 154.317 289.941 153.808C289.739 153.299 289.422 152.86 289.022 152.536Z" fill="#3F3D56"/>
<path d="M277.557 156.694C278.334 156.694 278.965 155.979 278.965 155.096C278.965 154.213 278.334 153.498 277.557 153.498C276.779 153.498 276.148 154.213 276.148 155.096C276.148 155.979 276.779 156.694 277.557 156.694Z" fill="#F1F1F1"/>
<path d="M282.133 156.694C282.91 156.694 283.541 155.979 283.541 155.096C283.541 154.213 282.91 153.498 282.133 153.498C281.355 153.498 280.725 154.213 280.725 155.096C280.725 155.979 281.355 156.694 282.133 156.694Z" fill="#F1F1F1"/>
<path d="M286.709 156.694C287.487 156.694 288.117 155.979 288.117 155.096C288.117 154.213 287.487 153.498 286.709 153.498C285.931 153.498 285.301 154.213 285.301 155.096C285.301 155.979 285.931 156.694 286.709 156.694Z" fill="#1B66A4"/>
<path d="M339.741 102.422C336.079 104.915 329.555 108.038 322.889 104.828L318.579 102.753L327.215 91.7652C320.324 83.1406 316.511 71.9106 316.522 60.2672C316.532 48.6238 320.365 37.4027 327.272 28.7942C334.179 20.1856 343.664 14.8074 353.877 13.7095C364.089 12.6115 374.296 15.8724 382.504 22.8559C390.712 29.8393 396.333 40.044 398.269 51.4781C400.206 62.9121 398.319 74.7549 392.977 84.6948C387.634 94.6347 379.221 101.958 369.377 105.236C359.534 108.514 348.968 107.511 339.741 102.422Z" fill="white"/>
<path d="M339.763 103.014C336.245 105.359 329.542 108.6 322.708 105.309L317.807 102.95L326.597 91.7665C321.128 84.7844 317.602 76.1217 316.462 66.8694C315.323 57.617 316.621 48.1888 320.193 39.7721C323.765 31.3553 329.451 24.3265 336.536 19.5707C343.62 14.8149 351.786 12.5449 360.005 13.0466C368.224 13.5482 376.129 16.7991 382.723 22.3897C389.317 27.9803 394.307 35.6608 397.063 44.4637C399.819 53.2667 400.219 62.7985 398.212 71.8588C396.205 80.9191 391.88 89.1027 385.783 95.3789C379.66 101.72 372.005 105.836 363.804 107.197C355.602 108.558 347.229 107.101 339.763 103.014ZM387.976 29.216C384.378 24.7113 380.034 21.0551 375.191 18.4563C370.348 15.8575 365.102 14.367 359.752 14.0699C354.401 13.7728 349.052 14.675 344.009 16.7249C338.966 18.7747 334.328 21.9322 330.36 26.0168C326.392 30.1015 323.172 35.0333 320.883 40.5307C318.595 46.0281 317.283 51.9833 317.023 58.0562C316.762 64.1292 317.558 70.2008 319.366 75.9245C321.173 81.6481 323.956 86.9115 327.556 91.4142L327.834 91.7625L319.35 102.557L323.068 104.347C329.668 107.525 336.198 104.224 339.504 101.974L339.718 101.828L339.942 101.952C348.463 106.652 358.159 107.837 367.367 105.306C376.574 102.775 384.718 96.6842 390.4 88.08C396.082 79.4759 398.948 68.8949 398.506 58.1537C398.064 47.4124 394.34 37.181 387.976 29.216Z" fill="#1B66A4"/>
<path opacity="0.1" d="M392.585 60.0233C392.585 49.257 389.033 38.8811 382.628 30.9389C376.224 22.9967 367.433 18.0639 357.984 17.1119C359.09 17.002 360.208 16.9425 361.339 16.9425C371.401 16.9494 381.05 21.4913 388.163 29.5698C395.276 37.6482 399.272 48.602 399.272 60.0233C399.272 71.4445 395.276 82.3983 388.163 90.4768C381.05 98.5553 371.401 103.097 361.339 103.104C360.21 103.104 359.094 103.044 357.99 102.934C367.437 101.981 376.227 97.0473 382.63 89.1054C389.033 81.1635 392.585 70.7885 392.585 60.0233Z" fill="black"/>
<path d="M363.121 51.4324H336V54.2911H363.121V51.4324Z" fill="#1B66A4"/>
<path d="M383.27 61.3217H336V64.1804H383.27V61.3217Z" fill="#1B66A4"/>
<path d="M383.224 71.2108H336V74.0695H383.224V71.2108Z" fill="#1B66A4"/>
<path d="M176.838 260.229H1.46031C1.33823 260.229 1.22115 260.174 1.13482 260.076C1.0485 259.978 1 259.845 1 259.706C1 259.568 1.0485 259.435 1.13482 259.337C1.22115 259.239 1.33823 259.184 1.46031 259.184H176.838C176.96 259.184 177.077 259.239 177.164 259.337C177.25 259.435 177.299 259.568 177.299 259.706C177.299 259.845 177.25 259.978 177.164 260.076C177.077 260.174 176.96 260.229 176.838 260.229Z" fill="#CBCBCB"/>
<path d="M109.206 52.2846C108.826 50.3278 107.591 48.7065 106.169 47.5191C103.825 45.5618 100.95 44.5996 98.0454 44.8001C95.1405 45.0006 92.3896 46.3511 90.2716 48.6164C89.0881 49.8029 88.2349 51.355 87.8163 53.0831C87.6166 53.9468 87.6059 54.8528 87.7852 55.7223C87.9645 56.5918 88.3283 57.3983 88.845 58.0717L89.0399 58.2102C88.8632 57.3596 89.4453 56.5097 90.1407 56.1344C90.864 55.8332 91.619 55.641 92.3863 55.563C93.5473 55.3139 94.6477 54.7849 95.613 54.0117C96.5784 53.2385 97.3863 52.2391 97.9822 51.081C98.4237 52.5064 99.1289 53.8078 100.051 54.898C100.972 55.9881 102.089 56.8416 103.325 57.4011C104.614 57.9733 108.155 58.76 109.382 58.0336C110.947 57.1071 109.586 54.2415 109.206 52.2846Z" fill="#2F2E41"/>
</g>
<defs>
<clipPath id="clip0_111_6007">
<rect width="400" height="248" fill="white" transform="translate(1 13)"/>
</clipPath>
</defs>
</svg>
