<svg width="402" height="290" viewBox="0 0 402 290" fill="none" xmlns="http://www.w3.org/2000/svg">
<rect width="401" height="290" transform="translate(0.5)" fill="white"/>
<g clip-path="url(#clip0_111_5985)">
<path d="M338.732 197.503C338.318 197.061 338.009 196.537 337.827 195.967C337.646 195.397 337.596 194.796 337.681 194.206C337.766 193.616 337.984 193.051 338.319 192.55C338.655 192.05 339.1 191.627 339.624 191.311L336.275 177.189L343.579 179.827L345.639 192.833C346.131 193.717 346.269 194.744 346.029 195.721C345.788 196.697 345.185 197.554 344.334 198.129C343.483 198.705 342.442 198.959 341.41 198.844C340.377 198.728 339.424 198.251 338.732 197.503Z" fill="#FFB8B8"/>
<path d="M338.227 186.295L331.807 174.311L332.675 144.136L333.088 144.975C333.568 145.953 344.834 168.977 344.03 176.684L345.318 183.728L338.227 186.295Z" fill="#3F3D56"/>
<path d="M334.04 274.857H339.189L341.638 255.686L334.039 255.686L334.04 274.857Z" fill="#FFB8B8"/>
<path d="M332.727 273.234L342.865 273.234H342.866C344.58 273.234 346.223 273.891 347.435 275.061C348.646 276.23 349.327 277.817 349.327 279.471V279.674L332.727 279.675L332.727 273.234Z" fill="#2F2E41"/>
<path d="M283.172 271.079L288.132 272.411L295.812 254.575L288.491 252.609L283.172 271.079Z" fill="#FFB8B8"/>
<path d="M282.356 269.177L292.124 271.799L292.125 271.799C293.776 272.242 295.176 273.3 296.019 274.741C296.862 276.181 297.077 277.886 296.618 279.479L296.562 279.675L280.568 275.382L282.356 269.177Z" fill="#2F2E41"/>
<path d="M328.907 267.383L318.517 195.564L296.075 266.977L278.43 261.16L303.72 165.535L303.886 165.524L330.38 163.745L349.521 261.579L328.907 267.383Z" fill="#2F2E41"/>
<path d="M326.159 131.693C326.159 131.693 316.5 126.828 303.482 128.855C303.482 128.855 296.553 144.993 303.482 151.417L305.372 167.571C305.372 167.571 323.009 177.706 328.888 165.949L328.048 152.571C328.048 152.571 332.248 146.155 328.888 141.457C326.874 138.588 325.914 135.15 326.159 131.693Z" fill="#1B66A4"/>
<path d="M327.382 205.168L329.077 171.209L324.279 130.81L324.5 130.778C330.793 129.862 332.812 140.329 332.895 140.775L343.849 200.567L327.382 205.168Z" fill="#3F3D56"/>
<path d="M306.024 205.522L286.658 203.445L286.663 203.241C286.732 200.473 288.399 135.398 293.069 130.789C297.768 126.153 306.633 128.159 307.008 128.247L307.195 128.291L305.602 155.826L306.024 205.522Z" fill="#3F3D56"/>
<path d="M309.591 166.629C309.005 166.814 308.383 166.874 307.77 166.803C307.157 166.731 306.568 166.531 306.044 166.216C305.52 165.902 305.073 165.48 304.736 164.98C304.4 164.481 304.18 163.916 304.094 163.326L289.367 160.541L294.832 155.17L307.978 158.639C309.015 158.564 310.044 158.859 310.87 159.468C311.696 160.077 312.262 160.957 312.461 161.942C312.66 162.927 312.478 163.948 311.949 164.812C311.42 165.675 310.581 166.322 309.591 166.629Z" fill="#FFB8B8"/>
<path d="M301.734 163.369L296.936 162.373C289.852 164.429 277.487 157.189 272.49 153.973C271.549 153.368 271.244 152.169 271.583 150.41C272.083 147.949 273.488 145.746 275.539 144.207L293.139 130.735L297.582 130.018L298.901 137.236L287.687 148.864L304.195 157.538L301.734 163.369Z" fill="#3F3D56"/>
<path d="M299.836 122.744V113.383C299.836 109.423 301.466 105.625 304.366 102.825C307.267 100.024 311.201 98.451 315.303 98.451C319.406 98.451 323.34 100.024 326.241 102.825C329.141 105.625 330.771 109.423 330.771 113.383V122.744C330.77 123.275 330.551 123.785 330.162 124.161C329.772 124.537 329.244 124.749 328.693 124.749H301.914C301.363 124.749 300.835 124.537 300.445 124.161C300.056 123.785 299.837 123.275 299.836 122.744Z" fill="#2F2E41"/>
<path d="M314.682 124.657C320.945 124.657 326.022 119.756 326.022 113.71C326.022 107.663 320.945 102.762 314.682 102.762C308.419 102.762 303.342 107.663 303.342 113.71C303.342 119.756 308.419 124.657 314.682 124.657Z" fill="#FFB8B8"/>
<path d="M303.03 113.667C302.922 113.547 302.841 113.405 302.795 113.252C302.748 113.098 302.736 112.937 302.76 112.779L304.103 103.749C304.13 103.565 304.203 103.39 304.317 103.241C304.432 103.092 304.582 102.972 304.756 102.893C311.613 99.7952 318.566 99.7913 325.423 102.881C325.605 102.965 325.761 103.092 325.877 103.251C325.992 103.41 326.063 103.596 326.082 103.789L326.979 112.831C326.994 112.986 326.976 113.142 326.925 113.289C326.875 113.437 326.793 113.572 326.684 113.687C326.576 113.802 326.444 113.894 326.297 113.957C326.15 114.019 325.991 114.052 325.83 114.052H323.556C323.336 114.051 323.121 113.991 322.936 113.877C322.751 113.763 322.603 113.601 322.51 113.409L321.528 111.379C321.465 111.247 321.359 111.139 321.226 111.071C321.093 111.003 320.941 110.978 320.793 111.001C320.645 111.023 320.508 111.092 320.403 111.196C320.299 111.3 320.232 111.435 320.214 111.578L320.02 113.075C319.984 113.345 319.849 113.593 319.638 113.772C319.427 113.952 319.156 114.051 318.874 114.052H303.902C303.737 114.052 303.573 114.018 303.423 113.951C303.272 113.885 303.138 113.788 303.03 113.667Z" fill="#2F2E41"/>
<path d="M255.406 27.9927H1V180.931H255.406V27.9927Z" fill="#E6E6E6"/>
<path d="M64.6551 57.4558H18.0605V86.694H64.6551V57.4558Z" fill="white"/>
<path d="M122.552 57.4558H75.957V86.694H122.552V57.4558Z" fill="white"/>
<path d="M180.45 57.4558H133.855V86.694H180.45V57.4558Z" fill="white"/>
<path d="M238.347 57.4558H191.752V86.694H238.347V57.4558Z" fill="white"/>
<path d="M64.6551 98.839H18.0605V128.077H64.6551V98.839Z" fill="white"/>
<path d="M122.552 98.839H75.957V128.077H122.552V98.839Z" fill="white"/>
<path d="M180.45 98.839H133.855V128.077H180.45V98.839Z" fill="white"/>
<path d="M238.347 98.839H191.752V128.077H238.347V98.839Z" fill="white"/>
<path d="M64.6551 140.222H18.0605V169.46H64.6551V140.222Z" fill="white"/>
<path d="M122.552 140.222H75.957V169.46H122.552V140.222Z" fill="white"/>
<path d="M180.45 140.222H133.855V169.46H180.45V140.222Z" fill="white"/>
<path d="M238.347 140.222H191.752V169.46H238.347V140.222Z" fill="white"/>
<path d="M67.6298 45.9854C71.4898 45.9854 74.619 42.9645 74.619 39.2381C74.619 35.5117 71.4898 32.4908 67.6298 32.4908C63.7698 32.4908 60.6406 35.5117 60.6406 39.2381C60.6406 42.9645 63.7698 45.9854 67.6298 45.9854Z" fill="white"/>
<path d="M183.184 45.9854C187.044 45.9854 190.174 42.9645 190.174 39.2381C190.174 35.5117 187.044 32.4908 183.184 32.4908C179.324 32.4908 176.195 35.5117 176.195 39.2381C176.195 42.9645 179.324 45.9854 183.184 45.9854Z" fill="white"/>
<path d="M70.4253 10H64.834V41.0374H70.4253V10Z" fill="#E6E6E6"/>
<path d="M185.98 10H180.389V41.0374H185.98V10Z" fill="#E6E6E6"/>
<path d="M225.586 72.0748C225.584 74.5175 224.669 76.8774 223.008 78.7208C221.348 80.5641 219.055 81.7672 216.549 82.1089C214.044 82.4506 211.495 81.9079 209.37 80.5807C207.246 79.2534 205.689 77.2307 204.986 74.8842C204.283 72.5377 204.481 70.025 205.543 67.8078C206.605 65.5907 208.46 63.818 210.767 62.8154C213.074 61.8129 215.679 61.6479 218.102 62.3507C220.526 63.0535 222.605 64.5769 223.958 66.6411C225.024 68.2666 225.588 70.1511 225.586 72.0748Z" fill="#1B66A4"/>
<path d="M223.958 66.6411L213.586 76.6523C212.935 75.678 209.303 71.1501 209.303 71.1501C209.768 70.696 210.265 70.2728 210.789 69.8833L213.801 73.7597L222.744 65.1265C223.197 65.5932 223.604 66.1004 223.958 66.6411Z" fill="white"/>
<path d="M109.792 113.458C109.789 115.901 108.874 118.261 107.213 120.104C105.553 121.947 103.26 123.15 100.754 123.492C98.2487 123.834 95.6997 123.291 93.5754 121.964C91.4512 120.637 89.8945 118.614 89.1913 116.267C88.4881 113.921 88.6856 111.408 89.7476 109.191C90.8096 106.974 92.6648 105.201 94.9722 104.199C97.2796 103.196 99.8842 103.031 102.308 103.734C104.731 104.437 106.81 105.96 108.163 108.024C109.229 109.65 109.793 111.534 109.792 113.458Z" fill="#1B66A4"/>
<path d="M108.163 108.024L97.7915 118.035C97.1396 117.061 93.5078 112.533 93.5078 112.533C93.9732 112.079 94.4699 111.656 94.9944 111.266L98.006 115.143L106.949 106.51C107.402 106.976 107.809 107.484 108.163 108.024Z" fill="white"/>
<path d="M51.8932 113.458C51.8908 115.901 50.9754 118.261 49.3151 120.104C47.6548 121.947 45.3612 123.15 42.8558 123.492C40.3503 123.834 37.8013 123.291 35.677 121.964C33.5528 120.637 31.9961 118.614 31.2928 116.267C30.5896 113.921 30.7872 111.408 31.8492 109.191C32.9112 106.974 34.7664 105.201 37.0738 104.199C39.3812 103.196 41.9858 103.031 44.4092 103.734C46.8325 104.437 48.9117 105.96 50.2648 108.024C51.3303 109.65 51.8951 111.534 51.8932 113.458Z" fill="#1B66A4"/>
<path d="M50.265 108.024L39.893 118.035C39.2411 117.061 35.6094 112.533 35.6094 112.533C36.0748 112.079 36.5715 111.656 37.096 111.266L40.1076 115.143L49.0504 106.51C49.5039 106.976 49.9106 107.484 50.265 108.024Z" fill="white"/>
<path d="M400.538 280H224.624C224.501 280 224.384 279.953 224.297 279.869C224.211 279.786 224.162 279.672 224.162 279.554C224.162 279.436 224.211 279.323 224.297 279.239C224.384 279.155 224.501 279.109 224.624 279.109H400.538C400.661 279.109 400.778 279.155 400.865 279.239C400.951 279.323 401 279.436 401 279.554C401 279.672 400.951 279.786 400.865 279.869C400.778 279.953 400.661 280 400.538 280Z" fill="#3F3D56"/>
</g>
<defs>
<clipPath id="clip0_111_5985">
<rect width="400" height="270" fill="white" transform="translate(1 10)"/>
</clipPath>
</defs>
</svg>
