<svg width="940" height="1125" viewBox="0 0 940 1125" fill="none" xmlns="http://www.w3.org/2000/svg">
<path fill-rule="evenodd" clip-rule="evenodd" d="M299.686 124H628.631V229.803C628.631 280.17 669.461 321 719.828 321C770.195 321 811.025 280.17 811.025 229.803V124H910C926.569 124 940 137.431 940 154V1095C940 1111.57 926.569 1125 910 1125H30C13.4315 1125 0 1111.57 0 1095V154C0 137.431 13.4315 124 30 124H117.293V229.803C117.293 280.17 158.123 321 208.489 321C258.856 321 299.686 280.17 299.686 229.803V124ZM650.631 229.803V124H789.025V229.803C789.025 268.019 758.044 299 719.828 299C681.612 299 650.631 268.019 650.631 229.803ZM139.293 124V229.803C139.293 268.019 170.273 299 208.489 299C246.706 299 277.686 268.019 277.686 229.803V124H139.293ZM876.195 362H63.805V975C63.805 1015.87 96.9359 1049 137.805 1049H802.195C843.064 1049 876.195 1015.87 876.195 975V362Z" fill="white"/>
<rect x="150.293" y="11" width="116.394" height="277" rx="58.1969" fill="white" stroke="white" stroke-width="22"/>
<rect x="661.631" y="11" width="116.394" height="277" rx="58.1969" fill="white" stroke="white" stroke-width="22"/>
<path d="M254.8 675H456.4V753H254.8V675ZM262 906H164.8V486H482.2V564H262V906ZM574.403 906V734.4L596.603 793.2L411.803 486H515.003L656.603 721.8H597.203L739.403 486H834.803L650.003 793.2L671.603 734.4V906H574.403Z" fill="white"/>
</svg>
