<svg width="2680" height="1125" viewBox="0 0 2680 1125" fill="none" xmlns="http://www.w3.org/2000/svg">
<path fill-rule="evenodd" clip-rule="evenodd" d="M2039.69 124H2368.63V229.803C2368.63 280.17 2409.46 321 2459.83 321C2510.19 321 2551.02 280.17 2551.02 229.803V124H2650C2666.57 124 2680 137.431 2680 154V1095C2680 1111.57 2666.57 1125 2650 1125H1770C1753.43 1125 1740 1111.57 1740 1095V154C1740 137.431 1753.43 124 1770 124H1857.29V229.803C1857.29 280.17 1898.12 321 1948.49 321C1998.86 321 2039.69 280.17 2039.69 229.803V124ZM2390.63 229.803V124H2529.02V229.803C2529.02 268.019 2498.04 299 2459.83 299C2421.61 299 2390.63 268.019 2390.63 229.803ZM1879.29 124V229.803C1879.29 268.019 1910.27 299 1948.49 299C1986.71 299 2017.69 268.019 2017.69 229.803V124H1879.29ZM2616.2 362H1803.8V975C1803.8 1015.87 1836.94 1049 1877.8 1049H2542.2C2583.06 1049 2616.2 1015.87 2616.2 975V362Z" fill="#144B78"/>
<rect x="1890.29" y="11" width="116.394" height="277" rx="58.1969" fill="#144B78" stroke="#144B78" stroke-width="22"/>
<rect x="2401.63" y="11" width="116.394" height="277" rx="58.1969" fill="#144B78" stroke="#144B78" stroke-width="22"/>
<path d="M241.2 906V843L235.2 829.2V716.4C235.2 696.4 229 680.8 216.6 669.6C204.6 658.4 186 652.8 160.8 652.8C143.6 652.8 126.6 655.6 109.8 661.2C93.4 666.4 79.4 673.6 67.8 682.8L34.2 617.4C51.8 605 73 595.4 97.8 588.6C122.6 581.8 147.8 578.4 173.4 578.4C222.6 578.4 260.8 590 288 613.2C315.2 636.4 328.8 672.6 328.8 721.8V906H241.2ZM142.8 910.8C117.6 910.8 96 906.6 78 898.2C60 889.4 46.2 877.6 36.6 862.8C27 848 22.2 831.4 22.2 813C22.2 793.8 26.8 777 36 762.6C45.6 748.2 60.6 737 81 729C101.4 720.6 128 716.4 160.8 716.4H246.6V771H171C149 771 133.8 774.6 125.4 781.8C117.4 789 113.4 798 113.4 808.8C113.4 820.8 118 830.4 127.2 837.6C136.8 844.4 149.8 847.8 166.2 847.8C181.8 847.8 195.8 844.2 208.2 837C220.6 829.4 229.6 818.4 235.2 804L249.6 847.2C242.8 868 230.4 883.8 212.4 894.6C194.4 905.4 171.2 910.8 142.8 910.8ZM501.656 1027.2C471.256 1027.2 441.856 1023.4 413.456 1015.8C385.456 1008.6 362.056 997.6 343.256 982.8L380.456 915.6C394.056 926.8 411.256 935.6 432.056 942C453.256 948.8 474.056 952.2 494.456 952.2C527.656 952.2 551.656 944.8 566.456 930C581.656 915.2 589.256 893.2 589.256 864V815.4L595.256 734.4L594.056 652.8V583.2H682.856V852C682.856 912 667.256 956.2 636.056 984.6C604.856 1013 560.056 1027.2 501.656 1027.2ZM487.256 890.4C457.256 890.4 430.056 884 405.656 871.2C381.656 858 362.256 839.8 347.456 816.6C333.056 793 325.856 765.6 325.856 734.4C325.856 702.8 333.056 675.4 347.456 652.2C362.256 628.6 381.656 610.4 405.656 597.6C430.056 584.8 457.256 578.4 487.256 578.4C514.456 578.4 538.456 584 559.256 595.2C580.056 606 596.256 623 607.856 646.2C619.456 669 625.256 698.4 625.256 734.4C625.256 770 619.456 799.4 607.856 822.6C596.256 845.4 580.056 862.4 559.256 873.6C538.456 884.8 514.456 890.4 487.256 890.4ZM505.856 813.6C522.256 813.6 536.856 810.4 549.656 804C562.456 797.2 572.456 787.8 579.656 775.8C586.856 763.8 590.456 750 590.456 734.4C590.456 718.4 586.856 704.6 579.656 693C572.456 681 562.456 671.8 549.656 665.4C536.856 658.6 522.256 655.2 505.856 655.2C489.456 655.2 474.856 658.6 462.056 665.4C449.256 671.8 439.056 681 431.456 693C424.256 704.6 420.656 718.4 420.656 734.4C420.656 750 424.256 763.8 431.456 775.8C439.056 787.8 449.256 797.2 462.056 804C474.856 810.4 489.456 813.6 505.856 813.6ZM864.173 910.8C827.373 910.8 794.973 903.6 766.973 889.2C739.373 874.8 717.973 855.2 702.773 830.4C687.573 805.2 679.973 776.6 679.973 744.6C679.973 712.2 687.373 683.6 702.173 658.8C717.373 633.6 737.973 614 763.973 600C789.973 585.6 819.373 578.4 852.173 578.4C883.773 578.4 912.173 585.2 937.373 598.8C962.973 612 983.173 631.2 997.973 656.4C1012.77 681.2 1020.17 711 1020.17 745.8C1020.17 749.4 1019.97 753.6 1019.57 758.4C1019.17 762.8 1018.77 767 1018.37 771H756.173V716.4H969.173L933.173 732.6C933.173 715.8 929.773 701.2 922.973 688.8C916.173 676.4 906.773 666.8 894.773 660C882.773 652.8 868.773 649.2 852.773 649.2C836.773 649.2 822.573 652.8 810.173 660C798.173 666.8 788.773 676.6 781.973 689.4C775.173 701.8 771.773 716.6 771.773 733.8V748.2C771.773 765.8 775.573 781.4 783.173 795C791.173 808.2 802.173 818.4 816.173 825.6C830.573 832.4 847.373 835.8 866.573 835.8C883.773 835.8 898.773 833.2 911.573 828C924.773 822.8 936.773 815 947.573 804.6L997.373 858.6C982.573 875.4 963.973 888.4 941.573 897.6C919.173 906.4 893.373 910.8 864.173 910.8ZM1212.69 578.4C1238.29 578.4 1261.09 583.6 1281.09 594C1301.49 604 1317.49 619.6 1329.09 640.8C1340.69 661.6 1346.49 688.4 1346.49 721.2V906H1252.89V735.6C1252.89 709.6 1247.09 690.4 1235.49 678C1224.29 665.6 1208.29 659.4 1187.49 659.4C1172.69 659.4 1159.29 662.6 1147.29 669C1135.69 675 1126.49 684.4 1119.69 697.2C1113.29 710 1110.09 726.4 1110.09 746.4V906H1016.49V583.2H1105.89V672.6L1089.09 645.6C1100.69 624 1117.29 607.4 1138.89 595.8C1160.49 584.2 1185.09 578.4 1212.69 578.4ZM1506.28 910.8C1475.88 910.8 1448.48 904 1424.08 890.4C1399.68 876.4 1380.28 857 1365.88 832.2C1351.88 807.4 1344.88 778.2 1344.88 744.6C1344.88 710.6 1351.88 681.2 1365.88 656.4C1380.28 631.6 1399.68 612.4 1424.08 598.8C1448.48 585.2 1475.88 578.4 1506.28 578.4C1533.48 578.4 1557.28 584.4 1577.68 596.4C1598.08 608.4 1613.88 626.6 1625.08 651C1636.28 675.4 1641.88 706.6 1641.88 744.6C1641.88 782.2 1636.48 813.4 1625.68 838.2C1614.88 862.6 1599.28 880.8 1578.88 892.8C1558.88 904.8 1534.68 910.8 1506.28 910.8ZM1522.48 834C1537.68 834 1551.48 830.4 1563.88 823.2C1576.28 816 1586.08 805.8 1593.28 792.6C1600.88 779 1604.68 763 1604.68 744.6C1604.68 725.8 1600.88 709.8 1593.28 696.6C1586.08 683.4 1576.28 673.2 1563.88 666C1551.48 658.8 1537.68 655.2 1522.48 655.2C1506.88 655.2 1492.88 658.8 1480.48 666C1468.08 673.2 1458.08 683.4 1450.48 696.6C1443.28 709.8 1439.68 725.8 1439.68 744.6C1439.68 763 1443.28 779 1450.48 792.6C1458.08 805.8 1468.08 816 1480.48 823.2C1492.88 830.4 1506.88 834 1522.48 834ZM1607.08 906V840L1608.88 744L1602.88 648.6V460.8H1696.48V906H1607.08Z" fill="#1B66A4"/>
<path d="M762.6 1075.8C753.4 1075.8 745.067 1073.67 737.6 1069.4C730.267 1065.13 724.4 1059 720 1051C715.733 1043 713.6 1033.6 713.6 1022.8C713.6 1011.73 715.733 1002.27 720 994.4C724.4 986.533 730.267 980.467 737.6 976.2C745.067 971.933 753.4 969.8 762.6 969.8C772.467 969.8 781.267 972.067 789 976.6C796.867 981 803 987.2 807.4 995.2C811.933 1003.07 814.2 1012.27 814.2 1022.8C814.2 1033.2 811.933 1042.4 807.4 1050.4C803 1058.4 796.867 1064.67 789 1069.2C781.267 1073.6 772.467 1075.8 762.6 1075.8ZM710.2 1075V926.6H720.2V1004.4L718.2 1022.6L719.8 1040.8V1075H710.2ZM762 1066.8C770 1066.8 777.2 1065 783.6 1061.4C790 1057.67 795 1052.47 798.6 1045.8C802.333 1039.13 804.2 1031.47 804.2 1022.8C804.2 1014 802.333 1006.33 798.6 999.8C795 993.133 790 988 783.6 984.4C777.2 980.667 770 978.8 762 978.8C754 978.8 746.8 980.667 740.4 984.4C734.133 988 729.133 993.133 725.4 999.8C721.8 1006.33 720 1014 720 1022.8C720 1031.47 721.8 1039.13 725.4 1045.8C729.133 1052.47 734.133 1057.67 740.4 1061.4C746.8 1065 754 1066.8 762 1066.8ZM817.831 1114.6C813.031 1114.6 808.498 1113.8 804.231 1112.2C800.098 1110.6 796.565 1108.27 793.631 1105.2L798.631 1097.6C801.298 1100.4 804.165 1102.47 807.231 1103.8C810.431 1105.13 814.031 1105.8 818.031 1105.8C822.831 1105.8 827.031 1104.47 830.631 1101.8C834.365 1099.13 837.831 1094.27 841.031 1087.2L848.231 1071.2L849.631 1069.4L893.831 970.6H904.031L850.431 1089.2C847.631 1095.6 844.565 1100.6 841.231 1104.2C838.031 1107.93 834.498 1110.6 830.631 1112.2C826.765 1113.8 822.498 1114.6 817.831 1114.6ZM848.031 1077.6L799.631 970.6H810.231L854.231 1068.8L848.031 1077.6ZM975.663 1075.8C966.729 1075.8 958.996 1074.2 952.463 1071C945.929 1067.67 940.863 1062.73 937.263 1056.2C933.796 1049.53 932.063 1041.33 932.063 1031.6V970.6H942.063V1030.8C942.063 1042.53 945.063 1051.47 951.063 1057.6C957.063 1063.73 965.529 1066.8 976.463 1066.8C984.329 1066.8 991.129 1065.13 996.863 1061.8C1002.6 1058.47 1007 1053.8 1010.06 1047.8C1013.13 1041.67 1014.66 1034.47 1014.66 1026.2V970.6H1024.66V1075H1015.06V1046L1016.46 1049.4C1013.4 1057.53 1008.26 1064 1001.06 1068.8C993.996 1073.47 985.529 1075.8 975.663 1075.8ZM1071.45 1075.8C1062.78 1075.8 1054.65 1074.53 1047.05 1072C1039.58 1069.47 1033.78 1066.27 1029.65 1062.4L1034.25 1054.4C1038.25 1057.87 1043.58 1060.87 1050.25 1063.4C1056.92 1065.8 1064.12 1067 1071.85 1067C1082.78 1067 1090.65 1065.2 1095.45 1061.6C1100.25 1058 1102.65 1053.27 1102.65 1047.4C1102.65 1043.13 1101.38 1039.8 1098.85 1037.4C1096.45 1034.87 1093.18 1032.93 1089.05 1031.6C1084.92 1030.27 1080.38 1029.2 1075.45 1028.4C1070.52 1027.47 1065.58 1026.47 1060.65 1025.4C1055.72 1024.33 1051.18 1022.8 1047.05 1020.8C1042.92 1018.8 1039.58 1016.07 1037.05 1012.6C1034.65 1009 1033.45 1004.27 1033.45 998.4C1033.45 993.067 1034.92 988.267 1037.85 984C1040.78 979.733 1045.18 976.333 1051.05 973.8C1056.92 971.133 1064.25 969.8 1073.05 969.8C1079.58 969.8 1086.12 970.733 1092.65 972.6C1099.32 974.467 1104.72 976.933 1108.85 980L1104.25 988C1099.85 984.667 1094.92 982.267 1089.45 980.8C1083.98 979.333 1078.45 978.6 1072.85 978.6C1062.72 978.6 1055.25 980.467 1050.45 984.2C1045.78 987.933 1043.45 992.6 1043.45 998.2C1043.45 1002.6 1044.65 1006.13 1047.05 1008.8C1049.58 1011.33 1052.92 1013.33 1057.05 1014.8C1061.18 1016.13 1065.72 1017.27 1070.65 1018.2C1075.58 1019 1080.52 1019.93 1085.45 1021C1090.38 1022.07 1094.92 1023.6 1099.05 1025.6C1103.18 1027.47 1106.45 1030.13 1108.85 1033.6C1111.38 1036.93 1112.65 1041.47 1112.65 1047.2C1112.65 1052.93 1111.05 1057.93 1107.85 1062.2C1104.78 1066.47 1100.18 1069.8 1094.05 1072.2C1087.92 1074.6 1080.38 1075.8 1071.45 1075.8ZM1108.96 1103.6L1116.76 1069.8L1117.76 1075.6C1115.23 1075.6 1113.09 1074.8 1111.36 1073.2C1109.76 1071.6 1108.96 1069.6 1108.96 1067.2C1108.96 1064.8 1109.76 1062.8 1111.36 1061.2C1113.09 1059.6 1115.09 1058.8 1117.36 1058.8C1119.89 1058.8 1121.89 1059.67 1123.36 1061.4C1124.96 1063 1125.76 1064.93 1125.76 1067.2C1125.76 1068.13 1125.69 1069.07 1125.56 1070C1125.43 1070.93 1125.23 1071.87 1124.96 1072.8C1124.69 1073.73 1124.36 1074.93 1123.96 1076.4L1116.16 1103.6H1108.96ZM1167.97 1075V954.6C1167.97 945.933 1170.43 939 1175.37 933.8C1180.43 928.467 1187.63 925.8 1196.97 925.8C1200.83 925.8 1204.63 926.4 1208.37 927.6C1212.1 928.667 1215.17 930.333 1217.57 932.6L1213.57 940.2C1211.57 938.2 1209.17 936.733 1206.37 935.8C1203.57 934.867 1200.57 934.4 1197.37 934.4C1190.97 934.4 1186.1 936.2 1182.77 939.8C1179.43 943.267 1177.77 948.467 1177.77 955.4V973L1177.97 977.8V1075H1167.97ZM1148.77 979.2V970.6H1211.17V979.2H1148.77ZM1248.63 1075.8C1238.63 1075.8 1229.7 1073.53 1221.83 1069C1214.1 1064.47 1207.9 1058.2 1203.23 1050.2C1198.7 1042.2 1196.43 1033.07 1196.43 1022.8C1196.43 1012.4 1198.7 1003.27 1203.23 995.4C1207.9 987.4 1214.1 981.133 1221.83 976.6C1229.7 972.067 1238.63 969.8 1248.63 969.8C1258.63 969.8 1267.57 972.067 1275.43 976.6C1283.3 981.133 1289.5 987.4 1294.03 995.4C1298.57 1003.27 1300.83 1012.4 1300.83 1022.8C1300.83 1033.07 1298.57 1042.2 1294.03 1050.2C1289.5 1058.2 1283.3 1064.47 1275.43 1069C1267.57 1073.53 1258.63 1075.8 1248.63 1075.8ZM1248.63 1066.8C1256.63 1066.8 1263.83 1065 1270.23 1061.4C1276.63 1057.67 1281.63 1052.47 1285.23 1045.8C1288.83 1039.13 1290.63 1031.47 1290.63 1022.8C1290.63 1014 1288.83 1006.33 1285.23 999.8C1281.63 993.133 1276.63 988 1270.23 984.4C1263.83 980.667 1256.63 978.8 1248.63 978.8C1240.63 978.8 1233.43 980.667 1227.03 984.4C1220.77 988 1215.77 993.133 1212.03 999.8C1208.43 1006.33 1206.63 1014 1206.63 1022.8C1206.63 1031.47 1208.43 1039.13 1212.03 1045.8C1215.77 1052.47 1220.77 1057.67 1227.03 1061.4C1233.43 1065 1240.63 1066.8 1248.63 1066.8ZM1309.86 1075V970.6H1319.46V999.2L1318.46 996C1321.39 987.6 1326.32 981.133 1333.26 976.6C1340.19 972.067 1348.86 969.8 1359.26 969.8V979.6C1358.86 979.6 1358.46 979.6 1358.06 979.6C1357.66 979.467 1357.26 979.4 1356.86 979.4C1345.26 979.4 1336.19 983.067 1329.66 990.4C1323.12 997.6 1319.86 1007.67 1319.86 1020.6V1075H1309.86ZM1393.53 1114.6C1388.73 1114.6 1384.2 1113.8 1379.93 1112.2C1375.8 1110.6 1372.27 1108.27 1369.33 1105.2L1374.33 1097.6C1377 1100.4 1379.87 1102.47 1382.93 1103.8C1386.13 1105.13 1389.73 1105.8 1393.73 1105.8C1398.53 1105.8 1402.73 1104.47 1406.33 1101.8C1410.07 1099.13 1413.53 1094.27 1416.73 1087.2L1423.93 1071.2L1425.33 1069.4L1469.53 970.6H1479.73L1426.13 1089.2C1423.33 1095.6 1420.27 1100.6 1416.93 1104.2C1413.73 1107.93 1410.2 1110.6 1406.33 1112.2C1402.47 1113.8 1398.2 1114.6 1393.53 1114.6ZM1423.73 1077.6L1375.33 970.6H1385.93L1429.93 1068.8L1423.73 1077.6ZM1517.47 1075.8C1507.47 1075.8 1498.54 1073.53 1490.67 1069C1482.94 1064.47 1476.74 1058.2 1472.07 1050.2C1467.54 1042.2 1465.27 1033.07 1465.27 1022.8C1465.27 1012.4 1467.54 1003.27 1472.07 995.4C1476.74 987.4 1482.94 981.133 1490.67 976.6C1498.54 972.067 1507.47 969.8 1517.47 969.8C1527.47 969.8 1536.4 972.067 1544.27 976.6C1552.14 981.133 1558.34 987.4 1562.87 995.4C1567.4 1003.27 1569.67 1012.4 1569.67 1022.8C1569.67 1033.07 1567.4 1042.2 1562.87 1050.2C1558.34 1058.2 1552.14 1064.47 1544.27 1069C1536.4 1073.53 1527.47 1075.8 1517.47 1075.8ZM1517.47 1066.8C1525.47 1066.8 1532.67 1065 1539.07 1061.4C1545.47 1057.67 1550.47 1052.47 1554.07 1045.8C1557.67 1039.13 1559.47 1031.47 1559.47 1022.8C1559.47 1014 1557.67 1006.33 1554.07 999.8C1550.47 993.133 1545.47 988 1539.07 984.4C1532.67 980.667 1525.47 978.8 1517.47 978.8C1509.47 978.8 1502.27 980.667 1495.87 984.4C1489.6 988 1484.6 993.133 1480.87 999.8C1477.27 1006.33 1475.47 1014 1475.47 1022.8C1475.47 1031.47 1477.27 1039.13 1480.87 1045.8C1484.6 1052.47 1489.6 1057.67 1495.87 1061.4C1502.27 1065 1509.47 1066.8 1517.47 1066.8ZM1621.09 1075.8C1612.16 1075.8 1604.43 1074.2 1597.89 1071C1591.36 1067.67 1586.29 1062.73 1582.69 1056.2C1579.23 1049.53 1577.49 1041.33 1577.49 1031.6V970.6H1587.49V1030.8C1587.49 1042.53 1590.49 1051.47 1596.49 1057.6C1602.49 1063.73 1610.96 1066.8 1621.89 1066.8C1629.76 1066.8 1636.56 1065.13 1642.29 1061.8C1648.03 1058.47 1652.43 1053.8 1655.49 1047.8C1658.56 1041.67 1660.09 1034.47 1660.09 1026.2V970.6H1670.09V1075H1660.49V1046L1661.89 1049.4C1658.83 1057.53 1653.69 1064 1646.49 1068.8C1639.43 1073.47 1630.96 1075.8 1621.09 1075.8ZM1689.28 1075.8C1687.01 1075.8 1685.01 1075 1683.28 1073.4C1681.68 1071.67 1680.88 1069.6 1680.88 1067.2C1680.88 1064.8 1681.68 1062.8 1683.28 1061.2C1685.01 1059.6 1687.01 1058.8 1689.28 1058.8C1691.55 1058.8 1693.48 1059.6 1695.08 1061.2C1696.81 1062.8 1697.68 1064.8 1697.68 1067.2C1697.68 1069.6 1696.81 1071.67 1695.08 1073.4C1693.48 1075 1691.55 1075.8 1689.28 1075.8Z" fill="#144B78"/>
<path d="M1994.8 675H2196.4V753H1994.8V675ZM2002 906H1904.8V486H2222.2V564H2002V906ZM2314.4 906V734.4L2336.6 793.2L2151.8 486H2255L2396.6 721.8H2337.2L2479.4 486H2574.8L2390 793.2L2411.6 734.4V906H2314.4Z" fill="#1B66A4"/>
</svg>
