<svg width="47" height="49" viewBox="0 0 47 49" fill="none" xmlns="http://www.w3.org/2000/svg">
<path d="M18.5 45.875H9.95001C7.42978 45.875 6.16964 45.875 5.20705 45.3572C4.3603 44.902 3.67189 44.1752 3.24048 43.2815C2.75 42.2655 2.75 40.9352 2.75 38.275V15.475C2.75 12.8148 2.75 11.4846 3.24048 10.4685C3.67189 9.57476 4.3603 8.84811 5.20705 8.39273C6.16964 7.875 7.42978 7.875 9.95001 7.875H36.05C38.5703 7.875 39.8305 7.875 40.793 8.39273C41.6397 8.84811 42.3282 9.57476 42.7595 10.4685C43.25 11.4846 43.25 12.8148 43.25 15.475V19.75M11.75 3.125V7.875M34.25 3.125V7.875M2.75 17.375H43.25M26.375 26.8752L11.75 26.875M18.5 36.3752L11.75 36.375M27.5 45.875L32.0563 44.9131C32.4534 44.8293 32.6521 44.7873 32.8373 44.7105C33.0017 44.6426 33.1581 44.5543 33.3028 44.4476C33.4661 44.3275 33.6092 44.1764 33.8959 43.8738L43.25 34C44.4927 32.6883 44.4927 30.5617 43.25 29.25C42.0074 27.9383 39.9927 27.9383 38.75 29.25L29.3959 39.1238C29.1092 39.4264 28.9661 39.5774 28.8523 39.7499C28.7512 39.9026 28.6675 40.0676 28.6032 40.2413C28.5305 40.4367 28.4907 40.6464 28.4113 41.0656L27.5 45.875Z" stroke="#133857" stroke-width="5" stroke-linecap="round" stroke-linejoin="round"/>
</svg>
