<svg width="47" height="44" viewBox="0 0 47 44" fill="none" xmlns="http://www.w3.org/2000/svg">
<path d="M30.1155 37.839C31.9522 38.3778 33.8945 38.6667 35.9038 38.6667C39.1647 38.6667 42.2492 37.9058 44.9922 36.5507C44.9974 36.4234 45 36.2953 45 36.1667C45 31.1041 40.9275 27 35.9038 27C32.7769 27 30.0185 28.59 28.3813 31.0116M30.1155 37.839V37.8333C30.1155 35.3602 29.4866 33.0351 28.3813 31.0116M30.1155 37.839C30.1154 37.9182 30.1147 37.9973 30.1134 38.0763C26.0081 40.5672 21.1989 42 16.0577 42C10.9165 42 6.10737 40.5672 2.00203 38.0763C2.00068 37.9955 2 37.9145 2 37.8333C2 30.0093 8.29386 23.6667 16.0577 23.6667C21.3675 23.6667 25.9897 26.6333 28.3813 31.0116M23.5001 9.5C23.5001 13.6421 20.168 17 16.0577 17C11.9474 17 8.6154 13.6421 8.6154 9.5C8.6154 5.35786 11.9474 2 16.0577 2C20.168 2 23.5001 5.35786 23.5001 9.5ZM41.6924 14.5C41.6924 17.7217 39.1008 20.3333 35.9039 20.3333C32.707 20.3333 30.1155 17.7217 30.1155 14.5C30.1155 11.2783 32.707 8.66667 35.9039 8.66667C39.1008 8.66667 41.6924 11.2783 41.6924 14.5Z" stroke="#133857" stroke-width="3" stroke-linecap="round" stroke-linejoin="round"/>
</svg>
