<svg width="162" height="164" viewBox="0 0 162 164" fill="none" xmlns="http://www.w3.org/2000/svg">
<g clip-path="url(#clip0_169_2561)">
<path d="M2.52539 92.2687C2.52539 101.279 4.28917 110.201 7.71603 118.525C11.1429 126.849 16.1657 134.413 22.4977 140.784C28.8297 147.155 36.3469 152.209 44.6201 155.657C52.8933 159.105 61.7604 160.879 70.7152 160.879C79.67 160.879 88.5371 159.105 96.8103 155.657C105.083 152.209 112.601 147.155 118.933 140.784C125.265 134.413 130.287 126.849 133.714 118.525C137.141 110.201 138.905 101.279 138.905 92.2687C138.905 83.2586 137.141 74.3367 133.714 66.0125C130.287 57.6883 125.265 50.1247 118.933 43.7536C112.601 37.3825 105.083 32.3287 96.8103 28.8806C88.5371 25.4326 79.67 23.658 70.7152 23.658C61.7604 23.658 52.8933 25.4326 44.6201 28.8806C36.3469 32.3287 28.8297 37.3825 22.4977 43.7536C16.1657 50.1247 11.1429 57.6883 7.71603 66.0125C4.28917 74.3367 2.52539 83.2586 2.52539 92.2687Z" fill="white"/>
<path d="M70.7153 163.421C31.6956 163.421 0 131.529 0 92.2687C0 53.0081 31.6956 21.1168 70.7153 21.1168C109.735 21.1168 141.431 53.0081 141.431 92.2687C141.431 131.529 109.735 163.421 70.7153 163.421ZM70.7153 26.1991C34.4737 26.1991 5.0511 55.8034 5.0511 92.2687C5.0511 128.734 34.4737 158.338 70.7153 158.338C106.957 158.338 136.38 128.734 136.38 92.2687C136.38 55.8034 106.957 26.1991 70.7153 26.1991Z" fill="#191919"/>
<path d="M19.4468 92.2686C19.4468 99.0428 20.7729 105.751 23.3494 112.009C25.9259 118.268 29.7023 123.955 34.463 128.745C39.2237 133.535 44.8756 137.335 51.0958 139.927C57.3159 142.519 63.9827 143.854 70.7154 143.854C77.4481 143.854 84.1149 142.519 90.3351 139.927C96.5553 137.335 102.207 133.535 106.968 128.745C111.729 123.955 115.505 118.268 118.081 112.009C120.658 105.751 121.984 99.0428 121.984 92.2686C121.984 85.4943 120.658 78.7864 118.081 72.5278C115.505 66.2692 111.729 60.5825 106.968 55.7924C102.207 51.0023 96.5553 47.2025 90.3351 44.6102C84.1149 42.0178 77.4481 40.6835 70.7154 40.6835C63.9827 40.6835 57.3159 42.0178 51.0958 44.6102C44.8756 47.2025 39.2237 51.0023 34.463 55.7924C29.7023 60.5825 25.9259 66.2692 23.3494 72.5278C20.7729 78.7864 19.4468 85.4943 19.4468 92.2686Z" fill="#1B66A4"/>
<path d="M70.7156 146.522C41.0404 146.522 16.9214 122.254 16.9214 92.3957C16.9214 62.5373 41.0404 38.2694 70.7156 38.2694C100.391 38.2694 124.51 62.5373 124.51 92.3957C124.51 122.254 100.391 146.522 70.7156 146.522ZM70.7156 43.2246C43.8185 43.2246 21.9725 65.2055 21.9725 92.2686C21.9725 119.332 43.8185 141.313 70.7156 141.313C97.6126 141.313 119.459 119.332 119.459 92.2686C119.459 65.2055 97.6126 43.2246 70.7156 43.2246Z" fill="#191919"/>
<path d="M37.7568 92.2687C37.7568 101.064 41.2292 109.499 47.4101 115.718C53.591 121.937 61.9741 125.431 70.7152 125.431C79.4564 125.431 87.8395 121.937 94.0204 115.718C100.201 109.499 103.674 101.064 103.674 92.2687C103.674 83.4736 100.201 75.0387 94.0204 68.8197C87.8395 62.6006 79.4564 59.1068 70.7152 59.1068C61.9741 59.1068 53.591 62.6006 47.4101 68.8197C41.2292 75.0387 37.7568 83.4736 37.7568 92.2687Z" fill="white"/>
<path d="M70.7154 128.099C51.1424 128.099 35.2314 112.09 35.2314 92.3957C35.2314 72.7019 51.1424 56.5657 70.7154 56.5657C90.2884 56.5657 106.199 72.5748 106.199 92.2687C106.199 111.962 90.2884 128.099 70.7154 128.099ZM70.7154 61.648C53.9205 61.648 40.2825 75.3701 40.2825 92.2687C40.2825 109.167 53.9205 122.889 70.7154 122.889C87.5103 122.889 101.148 109.167 101.148 92.2687C101.148 75.3701 87.5103 61.648 70.7154 61.648Z" fill="#191919"/>
<path d="M54.6782 92.2687C54.6782 94.3877 55.093 96.486 55.899 98.4437C56.7049 100.401 57.8862 102.18 59.3754 103.679C60.8646 105.177 62.6325 106.366 64.5783 107.177C66.524 107.988 68.6094 108.405 70.7155 108.405C72.8215 108.405 74.9069 107.988 76.8526 107.177C78.7984 106.366 80.5663 105.177 82.0555 103.679C83.5447 102.18 84.726 100.401 85.5319 98.4437C86.3379 96.486 86.7527 94.3877 86.7527 92.2687C86.7527 87.9891 85.0631 83.8848 82.0555 80.8586C79.0479 77.8325 74.9688 76.1324 70.7155 76.1324C66.4621 76.1324 62.383 77.8325 59.3754 80.8586C56.3679 83.8848 54.6782 87.9891 54.6782 92.2687Z" fill="#133857"/>
<path d="M70.7151 110.946C60.4867 110.946 52.1523 102.56 52.1523 92.2687C52.1523 81.9771 60.4867 73.5913 70.7151 73.5913C80.9436 73.5913 89.2779 81.9771 89.2779 92.2687C89.2779 102.687 80.9436 110.946 70.7151 110.946ZM70.7151 78.8006C63.2648 78.8006 57.2034 84.8994 57.2034 92.3957C57.2034 99.8921 63.2648 105.864 70.7151 105.864C78.1655 105.864 84.2268 99.765 84.2268 92.2687C84.2268 84.7723 78.1655 78.8006 70.7151 78.8006Z" fill="#191919"/>
<path d="M159.362 18.8298L138.905 39.2859L122.994 39.6671L123.373 23.6579L143.83 3.20178L143.199 19.4651L159.362 18.8298Z" fill="#C2CDDC"/>
<path d="M123.12 42.2082C122.489 42.2082 121.858 41.954 121.352 41.4458C120.847 40.9376 120.595 40.3023 120.595 39.54L120.974 23.5308C120.974 22.8955 121.226 22.2602 121.731 21.752L142.188 1.29583C142.946 0.533493 144.082 0.406437 144.966 0.787607C145.976 1.16878 146.482 2.18523 146.482 3.20169L145.976 16.6697L159.362 16.1615C160.372 16.1615 161.382 16.6697 161.761 17.6862C162.14 18.7026 162.014 19.7191 161.256 20.4814L140.799 40.9376C140.294 41.4458 139.663 41.6999 139.031 41.6999L123.12 42.2082ZM125.898 24.8014L125.646 37.1259L137.895 36.8718L153.048 21.6249L143.325 22.0061C142.567 22.0061 141.936 21.752 141.431 21.2438C140.925 20.7355 140.673 20.1003 140.673 19.3379L141.052 9.55453L125.898 24.8014Z" fill="#191919"/>
<path d="M71.9782 92.9038C71.3468 92.9038 70.7154 92.6497 70.2103 92.1415C69.2001 91.1251 69.2001 89.6004 70.2103 88.5839L153.301 4.98048C154.311 3.96403 155.826 3.96403 156.837 4.98048C157.847 5.99694 157.847 7.52162 156.837 8.53807L73.7461 92.1415C73.241 92.6497 72.6096 92.9038 71.9782 92.9038Z" fill="#191919"/>
<path d="M149.007 30.519H133.98C132.591 30.519 131.455 29.3755 131.455 27.9778V13.1122C131.455 11.7146 132.591 10.571 133.98 10.571C135.369 10.571 136.506 11.7146 136.506 13.1122V25.4367H149.007C150.396 25.4367 151.533 26.5802 151.533 27.9778C151.533 29.3755 150.396 30.519 149.007 30.519Z" fill="#191919"/>
</g>
<defs>
<clipPath id="clip0_169_2561">
<rect width="162" height="163" fill="white" transform="translate(0 0.5)"/>
</clipPath>
</defs>
</svg>
