<svg width="158" height="167" viewBox="0 0 158 167" fill="none" xmlns="http://www.w3.org/2000/svg">
<path d="M134.627 68.1808L122.395 40.169C123.287 39.3138 124.001 38.2722 124.492 37.1101C124.984 35.9477 125.242 34.6904 125.249 33.4175C125.242 31.3516 124.569 29.3499 123.342 27.7416C122.115 26.1334 120.407 25.0143 118.499 24.5685C116.59 24.1227 114.595 24.3767 112.841 25.2888C111.088 26.2009 109.68 27.7167 108.849 29.5869L47.0111 46.2022C45.4857 44.8154 43.5414 44.0511 41.5295 44.0476C39.7839 44.0351 38.0765 44.5869 36.6358 45.6289C35.1953 46.6709 34.0907 48.1534 33.4695 49.8776C32.8485 51.6019 32.741 53.4859 33.1614 55.2766C33.5818 57.0673 34.5097 58.6796 35.8214 59.8969L23.2725 88.6269L59.7413 88.4832L47.2376 59.7533C48.57 58.4907 49.4897 56.8144 49.8653 54.9649L72.1996 48.9797V122.528H71.7463L41.5749 132.44C40.6098 132.763 39.7661 133.4 39.1641 134.26C38.5621 135.12 38.2326 136.159 38.2224 137.228V137.564C38.1832 138.237 38.279 138.911 38.5038 139.543C38.7283 140.174 39.0765 140.748 39.5255 141.227C39.9745 141.706 40.5143 142.08 41.1095 142.323C41.7049 142.566 42.3419 142.674 42.9791 142.639H114.965C115.599 142.674 116.232 142.567 116.823 142.327C117.415 142.086 117.953 141.717 118.401 141.243C118.849 140.769 119.199 140.201 119.426 139.575C119.654 138.95 119.755 138.281 119.722 137.611V137.228C119.715 136.165 119.392 135.13 118.799 134.271C118.205 133.412 117.371 132.771 116.415 132.44L86.2886 122.528H85.7902V45.9152L109.891 39.1635L110.797 40.169L98.5204 68.2765C101.231 68.2765 132.142 68.1808 134.627 68.1808ZM30.7474 88.6269L41.5295 63.9192L52.1619 88.5169L30.7474 88.6269ZM116.823 44.1913L127.333 68.1328H106.176L116.823 44.1913Z" fill="#144B78"/>
<path d="M66.2274 87.7369C66.2274 102.148 55.1747 113.831 41.5399 113.831C27.9055 113.831 16.8525 102.148 16.8525 87.7369C44.0722 87.7376 38.375 87.7369 66.2274 87.7369Z" fill="#144B78"/>
<path fill-rule="evenodd" clip-rule="evenodd" d="M41.5399 106.872C49.2161 106.872 55.7764 101.823 58.4101 94.6953C52.1147 94.6953 48.0953 94.6953 44.6785 94.6953C38.9478 94.6956 34.9105 94.6956 24.6701 94.6953C27.3037 101.823 33.8641 106.872 41.5399 106.872ZM17.74 94.6953C17.1616 92.4801 16.8525 90.1466 16.8525 87.7369C19.2963 87.7369 21.4747 87.7369 23.4359 87.7369C34.6209 87.7373 38.7407 87.7373 44.7174 87.7369C48.3445 87.7369 52.6552 87.7369 59.6441 87.7369C61.6115 87.7369 63.7913 87.7369 66.2274 87.7369V87.7463C66.2268 90.1525 65.9177 92.4829 65.34 94.6953C62.4591 105.728 52.8949 113.831 41.5399 113.831C30.1854 113.831 20.6211 105.728 17.74 94.6953Z" fill="#144B78"/>
<path d="M139.98 67.8904C139.98 82.3018 128.927 93.9841 115.292 93.9841C101.658 93.9841 90.605 82.3018 90.605 67.8904C117.824 67.8911 112.127 67.8904 139.98 67.8904Z" fill="#144B78"/>
<path fill-rule="evenodd" clip-rule="evenodd" d="M115.292 87.0258C122.969 87.0258 129.529 81.9765 132.162 74.8487C125.867 74.8487 121.848 74.8491 118.431 74.8491C112.7 74.8491 108.663 74.8491 98.4224 74.8491C101.056 81.9765 107.616 87.0258 115.292 87.0258ZM91.4924 74.8487C90.9141 72.6335 90.605 70.3001 90.605 67.8904C93.0487 67.8904 95.2271 67.8907 97.1883 67.8907C108.373 67.8907 112.493 67.8907 118.47 67.8907C122.097 67.8907 126.408 67.8904 133.397 67.8904C135.364 67.8904 137.543 67.8904 139.98 67.8904V67.8998C139.979 70.3063 139.67 72.6363 139.093 74.8487C136.211 85.8818 126.647 93.9841 115.292 93.9841C103.938 93.9841 94.3733 85.8818 91.4924 74.8487Z" fill="#144B78"/>
</svg>
