<svg width="134" height="140" viewBox="0 0 134 140" fill="none" xmlns="http://www.w3.org/2000/svg">
<g clip-path="url(#clip0_169_2584)">
<path d="M82.1479 0.0488613C48.7665 -1.10769 13.6785 18.2902 16.7104 55.821C16.7899 58.4365 19.8008 70.1235 8.04314 79.6323C3.85995 83.0289 4.96685 89.6031 10.8543 92.8431C12.8068 93.9209 14.8486 94.6391 16.9684 95.1385C16.5319 97.4889 16.7477 99.8671 17.8797 102.103C15.1108 107.498 18.8089 112.415 22.0441 113.577C23.5649 114.329 22.3915 117.051 22.5596 119.334C23.0314 125.884 30.8435 129.06 35.8979 128.267C44.958 126.799 55.1475 127.266 58.5513 137.216C59.2315 139.203 60.9485 139.746 62.8024 139.966C66.9142 140.47 114.066 135.16 115.483 134.302C117.459 133.687 119.054 131.474 117.779 129.091C106.886 108.787 128.688 87.2301 132.877 67.726C139.941 35.6316 112.566 0.0488613 82.1479 0.0488613ZM126.225 65.3766C121.675 86.2452 101.711 106.421 109.614 128.272C94.7691 130.286 64.7843 133.439 64.6821 133.454C59.3386 121.563 46.9034 119.428 34.5997 121.29C32.9744 121.612 29.497 121.235 29.5897 118.066C30.6012 111.078 26.1136 107.074 24.341 106.644C23.6747 106.426 23.953 106.098 23.9426 106.108C27.2843 102.353 22.2536 98.9318 24.8059 94.0937C26.3613 91.1441 24.3625 89.1822 21.0759 88.7286C16.9826 88.2858 14.8214 86.7514 13.403 86.1234C12.716 85.7967 12.4495 85.199 13.0812 84.4977C26.0877 72.6922 23.8745 55.9755 23.8619 55.8226C20.923 19.4574 58.0861 5.07665 82.5062 7.19876C111.399 9.80121 131.108 38.142 126.225 65.3766Z" fill="#133857"/>
<path d="M63.6349 37.7513C54.1581 43.4624 52.1759 54.9288 56.0921 64.6887C57.0276 67.0206 58.531 69.0536 59.6842 71.2719C63.0469 77.744 60.7911 77.1686 60.8211 79.6312C60.8535 82.5173 61.5773 87.7745 61.8825 89.1912C62.1275 90.7352 63.2594 92.1157 65.2803 92.1157C88.5657 92.1157 88.9532 93.5559 90.2192 90.7932C90.9664 89.5329 90.6994 88.66 90.6994 80.9703C90.6994 77.2901 86.9203 80.5042 93.8735 71.0466C95.6448 68.6384 97.3994 66.315 98.5508 63.5341C101.001 57.608 100.597 50.8673 97.4022 45.2865C90.6482 33.466 74.498 31.2079 63.6349 37.7513ZM83.5631 85.266C78.518 85.0584 73.4688 85.0127 68.4171 84.999C68.3105 84.2201 68.2212 83.4412 68.1438 82.6609C73.2995 82.5642 78.4319 82.8105 83.5628 83.3262V85.266H83.5631ZM89.9615 64.6955C87.8986 66.8517 84.7989 70.1541 83.0055 76.1281C81.7752 76.0104 80.5454 75.9093 79.315 75.8238C79.3246 74.407 78.5261 71.5542 79.9001 66.227C79.9432 66.0624 79.9598 65.9079 79.9737 65.7554L83.6696 62.0593C86.1644 59.5683 82.384 55.7777 79.8878 58.2769L78.0708 60.0914C77.519 59.1624 76.9195 58.2584 76.2388 57.3838C74.5394 55.1993 69.8243 57.7767 72.4553 61.1676C73.3617 62.3312 74.0356 63.7049 74.6928 65.0372C73.8184 68.5431 73.629 72.0176 74.041 75.5775C72.1689 75.5251 70.2944 75.4957 68.4182 75.5303C68.0841 71.7021 66.5673 69.0833 65.1013 66.8759C64.2143 65.4336 54.8731 51.3629 68.2735 43.2867C75.7638 38.7744 84.6714 41.3616 90.5397 47.0282C97.5834 56.467 91.1144 63.4177 89.9615 64.6955Z" fill="#133857"/>
<path d="M47.6134 50.5444C44.5213 50.5229 41.4466 50.2636 38.3693 49.9848C35.1284 49.69 35.1567 54.7364 38.3693 55.0276C41.4466 55.3071 44.5213 55.5665 47.6134 55.588C50.8652 55.6085 50.8638 50.5652 47.6134 50.5444Z" fill="#133857"/>
<path d="M62.1172 29.9457C60.328 27.2623 58.5098 24.5991 56.4004 22.1525C54.2735 19.6841 50.7242 23.2668 52.8339 25.7183C54.6618 27.8386 56.2116 30.1636 57.7621 32.4898C59.5587 35.18 63.9286 32.6566 62.1172 29.9457Z" fill="#133857"/>
<path d="M94.0578 31.0882C95.3906 28.9563 96.7256 26.8257 97.9794 24.6467C99.6041 21.8222 95.2467 19.2849 93.6262 22.1009C92.371 24.2813 91.0371 26.4132 89.7032 28.5427C87.9747 31.3111 92.3391 33.8386 94.0578 31.0882Z" fill="#133857"/>
<path d="M106.559 52.4157C109.774 51.515 112.857 50.2734 115.847 48.8006C118.764 47.3609 116.207 43.0148 113.304 44.4468C110.695 45.732 108.019 46.7689 105.22 47.5533C102.092 48.4289 103.424 53.2941 106.559 52.4157Z" fill="#133857"/>
</g>
<defs>
<clipPath id="clip0_169_2584">
<rect width="134" height="140" fill="white"/>
</clipPath>
</defs>
</svg>
